<svg xmlns="http://www.w3.org/2000/svg" width="18.97" height="11" viewBox="0 0 18.97 11">
  <metadata><?xpacket begin="﻿" id="W5M0MpCehiHzreSzNTczkc9d"?>
<x:xmpmeta xmlns:x="adobe:ns:meta/" x:xmptk="Adobe XMP Core 5.6-c142 79.160924, 2017/07/13-01:06:39        ">
   <rdf:RDF xmlns:rdf="http://www.w3.org/1999/02/22-rdf-syntax-ns#">
      <rdf:Description rdf:about=""/>
   </rdf:RDF>
</x:xmpmeta>
                                                                                                    
                                                                                                    
                                                                                                    
                                                                                                    
                                                                                                    
                                                                                                    
                                                                                                    
                                                                                                    
                                                                                                    
                                                                                                    
                                                                                                    
                                                                                                    
                                                                                                    
                                                                                                    
                                                                                                    
                                                                                                    
                                                                                                    
                                                                                                    
                                                                                                    
                                                                                                    
                           
<?xpacket end="w"?></metadata>
<defs>
    <style>
      .cls-1 {
        fill: #fff;
        fill-rule: evenodd;
      }
    </style>
  </defs>
  <path id="_копия_2" data-name=" копия 2" class="cls-1" d="M2870.1,4014.75l-4.24-4.26a0.636,0.636,0,0,0-.35-0.14,0.439,0.439,0,0,0-.35.14,0.485,0.485,0,0,0-.15.35v2.26h-1.5a0.582,0.582,0,0,0-.35.15,0.431,0.431,0,0,0-.16.35v3a0.475,0.475,0,0,0,.16.35,0.485,0.485,0,0,0,.35.15h1.5v2.25a0.454,0.454,0,0,0,.15.35,0.507,0.507,0,0,0,.7,0l4.24-4.25a0.459,0.459,0,0,0,.16-0.35,0.431,0.431,0,0,0-.16-0.35h0Zm-18.83-1.6v1.04a0.992,0.992,0,0,0,.63.79,5.754,5.754,0,0,0,1.72.57,12.822,12.822,0,0,0,4.73,0,5.754,5.754,0,0,0,1.72-.57,0.992,0.992,0,0,0,.63-0.79v-1.04a5.491,5.491,0,0,1-2,.78,14.305,14.305,0,0,1-5.43,0,5.491,5.491,0,0,1-2-.78h0Zm0,4.72v1.04a0.993,0.993,0,0,0,.63.78,5.469,5.469,0,0,0,1.72.58,13.422,13.422,0,0,0,4.73,0,5.469,5.469,0,0,0,1.72-.58,0.993,0.993,0,0,0,.63-0.78v-1.04a5.322,5.322,0,0,1-2,.77,13.785,13.785,0,0,1-5.43,0,5.322,5.322,0,0,1-2-.77h0Zm0-2.36v1.04a1,1,0,0,0,.63.79,5.754,5.754,0,0,0,1.72.57,13.422,13.422,0,0,0,4.73,0,5.754,5.754,0,0,0,1.72-.57,1,1,0,0,0,.63-0.79v-1.04a5.491,5.491,0,0,1-2,.78,14.305,14.305,0,0,1-5.43,0,5.491,5.491,0,0,1-2-.78h0Zm0.63-5.24a0.993,0.993,0,0,0-.63.78v0.79a0.993,0.993,0,0,0,.63.78,5.736,5.736,0,0,0,1.72.58,13.422,13.422,0,0,0,4.73,0,5.736,5.736,0,0,0,1.72-.58,0.993,0.993,0,0,0,.63-0.78v-0.79a0.993,0.993,0,0,0-.63-0.78,5.469,5.469,0,0,0-1.72-.58,13.422,13.422,0,0,0-4.73,0A5.469,5.469,0,0,0,2851.9,4010.27Z" transform="translate(-2851.28 -4009.47)"/>
</svg>
