<?xml version="1.0" encoding="utf-8"?>
<!-- Generator: Adobe Illustrator 19.0.1, SVG Export Plug-In . SVG Version: 6.00 Build 0)  -->
<svg version="1.1" id="Layer_1" xmlns="http://www.w3.org/2000/svg" xmlns:xlink="http://www.w3.org/1999/xlink" x="0px" y="0px"
	 viewBox="-286.5 414.4 20 13" style="enable-background:new -286.5 414.4 20 13;" xml:space="preserve">
<style type="text/css">
	.st0{fill:#FFFFFF;}
	.st1{fill:#00007D;}
	.st2{fill:#C81318;}
	.st3{fill:#A7AED9;}
</style>
<g>
	<rect x="-286.5" y="414.4" class="st0" width="20" height="13"/>
	<rect x="-286.5" y="414.4" class="st1" width="10.5" height="8.4"/>
	<rect x="-276" y="414.4" class="st2" width="9.5" height="0.9"/>
	<rect x="-276" y="416.2" class="st2" width="9.5" height="0.9"/>
	<rect x="-276" y="418.1" class="st2" width="9.5" height="0.9"/>
	<rect x="-276" y="420" class="st2" width="9.5" height="0.9"/>
	<rect x="-276" y="421.8" class="st2" width="9.5" height="0.9"/>
	<rect x="-286.5" y="423.7" class="st2" width="20" height="0.9"/>
	<rect x="-286.5" y="425.5" class="st2" width="20" height="0.9"/>
	<path class="st3" d="M-280.8,421.8"/>
	<polygon class="st0" points="-284.9,415.8 -284.8,416.2 -285.1,416 -285.4,416.2 -285.3,415.8 -285.6,415.6 -285.2,415.6 
		-285.1,415.3 -285,415.6 -284.6,415.6 	"/>
	<polygon class="st0" points="-283.9,416.8 -283.8,417.1 -284.1,416.9 -284.4,417.1 -284.3,416.8 -284.6,416.6 -284.2,416.6 
		-284.1,416.3 -284,416.6 -283.6,416.6 	"/>
	<polygon class="st0" points="-283.9,414.9 -283.8,415.2 -284.1,415 -284.4,415.2 -284.3,414.9 -284.6,414.7 -284.2,414.7 
		-284.1,414.4 -284,414.7 -283.6,414.7 	"/>
	<polygon class="st0" points="-285.8,416.8 -285.7,417.1 -286,416.9 -286.3,417.1 -286.2,416.8 -286.5,416.6 -286.1,416.6 
		-286,416.3 -285.9,416.6 -285.5,416.6 	"/>
	<polygon class="st0" points="-285.8,414.9 -285.7,415.2 -286,415 -286.3,415.2 -286.2,414.9 -286.5,414.7 -286.1,414.7 -286,414.4 
		-285.9,414.7 -285.5,414.7 	"/>
	<polygon class="st0" points="-282,416.8 -281.9,417.1 -282.2,416.9 -282.5,417.1 -282.4,416.8 -282.7,416.6 -282.3,416.6 
		-282.2,416.3 -282.1,416.6 -281.7,416.6 	"/>
	<polygon class="st0" points="-282,414.9 -281.9,415.2 -282.2,415 -282.5,415.2 -282.4,414.9 -282.7,414.7 -282.3,414.7 
		-282.2,414.4 -282.1,414.7 -281.7,414.7 	"/>
	<polygon class="st0" points="-280.1,416.8 -280,417.1 -280.3,416.9 -280.6,417.1 -280.5,416.8 -280.8,416.6 -280.4,416.6 
		-280.3,416.3 -280.2,416.6 -279.8,416.6 	"/>
	<polygon class="st0" points="-280.1,414.9 -280,415.2 -280.3,415 -280.6,415.2 -280.5,414.9 -280.8,414.7 -280.4,414.7 
		-280.3,414.4 -280.2,414.7 -279.8,414.7 	"/>
	<polygon class="st0" points="-278.2,416.8 -278.1,417.1 -278.4,416.9 -278.7,417.1 -278.6,416.8 -278.9,416.6 -278.5,416.6 
		-278.4,416.3 -278.3,416.6 -277.9,416.6 	"/>
	<polygon class="st0" points="-278.2,414.9 -278.1,415.2 -278.4,415 -278.7,415.2 -278.6,414.9 -278.9,414.7 -278.5,414.7 
		-278.4,414.4 -278.3,414.7 -277.9,414.7 	"/>
	<polygon class="st0" points="-276.3,416.8 -276.2,417.1 -276.5,416.9 -276.8,417.1 -276.7,416.8 -277,416.6 -276.6,416.6 
		-276.5,416.3 -276.4,416.6 -276,416.6 	"/>
	<polygon class="st0" points="-276.3,414.9 -276.2,415.2 -276.5,415 -276.8,415.2 -276.7,414.9 -277,414.7 -276.6,414.7 
		-276.5,414.4 -276.4,414.7 -276,414.7 	"/>
	<polygon class="st0" points="-276.3,418.7 -276.2,419 -276.5,418.8 -276.8,419 -276.7,418.7 -277,418.5 -276.6,418.5 -276.5,418.1 
		-276.4,418.5 -276,418.5 	"/>
	<polygon class="st0" points="-276.3,420.5 -276.2,420.8 -276.5,420.6 -276.8,420.8 -276.7,420.5 -277,420.3 -276.6,420.3 
		-276.5,420 -276.4,420.3 -276,420.3 	"/>
	<polygon class="st0" points="-278.2,422.3 -278.1,422.7 -278.4,422.5 -278.7,422.7 -278.6,422.3 -278.9,422.2 -278.5,422.2 
		-278.4,421.8 -278.3,422.2 -277.9,422.2 	"/>
	<polygon class="st0" points="-276.3,422.3 -276.2,422.7 -276.5,422.5 -276.8,422.7 -276.7,422.3 -277,422.2 -276.6,422.2 
		-276.5,421.8 -276.4,422.2 -276,422.2 	"/>
	<polygon class="st0" points="-280.1,422.3 -280,422.7 -280.3,422.5 -280.6,422.7 -280.5,422.3 -280.8,422.2 -280.4,422.2 
		-280.3,421.8 -280.2,422.2 -279.8,422.2 	"/>
	<polygon class="st0" points="-282,422.3 -281.9,422.7 -282.2,422.5 -282.5,422.7 -282.4,422.3 -282.7,422.2 -282.3,422.2 
		-282.2,421.8 -282.1,422.2 -281.7,422.2 	"/>
	<polygon class="st0" points="-283.9,422.3 -283.8,422.7 -284.1,422.5 -284.4,422.7 -284.3,422.3 -284.6,422.2 -284.2,422.2 
		-284.1,421.8 -284,422.2 -283.6,422.2 	"/>
	<polygon class="st0" points="-285.8,422.3 -285.7,422.7 -286,422.5 -286.3,422.7 -286.2,422.3 -286.5,422.2 -286.1,422.2 
		-286,421.8 -285.9,422.2 -285.5,422.2 	"/>
	<polygon class="st0" points="-283.9,418.7 -283.8,419 -284.1,418.8 -284.4,419 -284.3,418.7 -284.6,418.5 -284.2,418.5 
		-284.1,418.1 -284,418.5 -283.6,418.5 	"/>
	<polygon class="st0" points="-285.8,418.7 -285.7,419 -286,418.8 -286.3,419 -286.2,418.7 -286.5,418.5 -286.1,418.5 -286,418.1 
		-285.9,418.5 -285.5,418.5 	"/>
	<polygon class="st0" points="-282,418.7 -281.9,419 -282.2,418.8 -282.5,419 -282.4,418.7 -282.7,418.5 -282.3,418.5 -282.2,418.1 
		-282.1,418.5 -281.7,418.5 	"/>
	<polygon class="st0" points="-280.1,418.7 -280,419 -280.3,418.8 -280.6,419 -280.5,418.7 -280.8,418.5 -280.4,418.5 -280.3,418.1 
		-280.2,418.5 -279.8,418.5 	"/>
	<polygon class="st0" points="-278.2,418.7 -278.1,419 -278.4,418.8 -278.7,419 -278.6,418.7 -278.9,418.5 -278.5,418.5 
		-278.4,418.1 -278.3,418.5 -277.9,418.5 	"/>
	<polygon class="st0" points="-283.9,420.5 -283.8,420.8 -284.1,420.6 -284.4,420.8 -284.3,420.5 -284.6,420.3 -284.2,420.3 
		-284.1,420 -284,420.3 -283.6,420.3 	"/>
	<polygon class="st0" points="-285.8,420.5 -285.7,420.8 -286,420.6 -286.3,420.8 -286.2,420.5 -286.5,420.3 -286.1,420.3 -286,420 
		-285.9,420.3 -285.5,420.3 	"/>
	<polygon class="st0" points="-282,420.5 -281.9,420.8 -282.2,420.6 -282.5,420.8 -282.4,420.5 -282.7,420.3 -282.3,420.3 
		-282.2,420 -282.1,420.3 -281.7,420.3 	"/>
	<polygon class="st0" points="-280.1,420.5 -280,420.8 -280.3,420.6 -280.6,420.8 -280.5,420.5 -280.8,420.3 -280.4,420.3 
		-280.3,420 -280.2,420.3 -279.8,420.3 	"/>
	<polygon class="st0" points="-278.2,420.5 -278.1,420.8 -278.4,420.6 -278.7,420.8 -278.6,420.5 -278.9,420.3 -278.5,420.3 
		-278.4,420 -278.3,420.3 -277.9,420.3 	"/>
	<polygon class="st0" points="-283,415.8 -282.9,416.2 -283.2,416 -283.5,416.2 -283.4,415.8 -283.7,415.6 -283.3,415.6 
		-283.2,415.3 -283.1,415.6 -282.7,415.6 	"/>
	<polygon class="st0" points="-281.1,415.8 -281,416.2 -281.3,416 -281.6,416.2 -281.5,415.8 -281.7,415.6 -281.4,415.6 
		-281.3,415.3 -281.2,415.6 -280.8,415.6 	"/>
	<polygon class="st0" points="-279.2,415.8 -279.1,416.2 -279.4,416 -279.7,416.2 -279.5,415.8 -279.8,415.6 -279.5,415.6 
		-279.4,415.3 -279.3,415.6 -278.9,415.6 	"/>
	<polygon class="st0" points="-277.3,415.8 -277.2,416.2 -277.5,416 -277.8,416.2 -277.6,415.8 -277.9,415.6 -277.6,415.6 
		-277.5,415.3 -277.3,415.6 -277,415.6 	"/>
	<polygon class="st0" points="-284.9,417.7 -284.8,418 -285.1,417.8 -285.4,418 -285.3,417.7 -285.6,417.5 -285.2,417.5 
		-285.1,417.2 -285,417.5 -284.6,417.5 	"/>
	<polygon class="st0" points="-283,417.7 -282.9,418 -283.2,417.8 -283.5,418 -283.4,417.7 -283.7,417.5 -283.3,417.5 -283.2,417.2 
		-283.1,417.5 -282.7,417.5 	"/>
	<polygon class="st0" points="-281.1,417.7 -281,418 -281.3,417.8 -281.6,418 -281.5,417.7 -281.7,417.5 -281.4,417.5 -281.3,417.2 
		-281.2,417.5 -280.8,417.5 	"/>
	<polygon class="st0" points="-279.2,417.7 -279.1,418 -279.4,417.8 -279.7,418 -279.5,417.7 -279.8,417.5 -279.5,417.5 
		-279.4,417.2 -279.3,417.5 -278.9,417.5 	"/>
	<polygon class="st0" points="-277.3,417.7 -277.2,418 -277.5,417.8 -277.8,418 -277.6,417.7 -277.9,417.5 -277.6,417.5 
		-277.5,417.2 -277.3,417.5 -277,417.5 	"/>
	<polygon class="st0" points="-284.9,419.5 -284.8,419.9 -285.1,419.7 -285.4,419.9 -285.3,419.5 -285.5,419.4 -285.2,419.4 
		-285.1,419 -285,419.4 -284.6,419.4 	"/>
	<polygon class="st0" points="-283,419.5 -282.9,419.9 -283.2,419.7 -283.5,419.9 -283.4,419.5 -283.7,419.4 -283.3,419.4 
		-283.2,419 -283.1,419.4 -282.7,419.4 	"/>
	<polygon class="st0" points="-281.1,419.5 -281,419.9 -281.3,419.7 -281.6,419.9 -281.5,419.5 -281.7,419.4 -281.4,419.4 
		-281.3,419 -281.2,419.4 -280.8,419.4 	"/>
	<polygon class="st0" points="-279.2,419.5 -279.1,419.9 -279.4,419.7 -279.7,419.9 -279.5,419.5 -279.8,419.4 -279.5,419.4 
		-279.4,419 -279.3,419.4 -278.9,419.4 	"/>
	<polygon class="st0" points="-277.3,419.5 -277.2,419.9 -277.5,419.7 -277.8,419.9 -277.6,419.5 -277.9,419.4 -277.6,419.4 
		-277.5,419 -277.3,419.4 -277,419.4 	"/>
	<polygon class="st0" points="-284.9,421.5 -284.8,421.8 -285.1,421.6 -285.4,421.8 -285.3,421.5 -285.6,421.3 -285.2,421.3 
		-285.1,421 -285,421.3 -284.6,421.3 	"/>
	<polygon class="st0" points="-283,421.5 -282.9,421.8 -283.2,421.6 -283.5,421.8 -283.4,421.5 -283.7,421.3 -283.3,421.3 
		-283.2,421 -283.1,421.3 -282.7,421.3 	"/>
	<polygon class="st0" points="-281.1,421.5 -281,421.8 -281.3,421.6 -281.6,421.8 -281.5,421.5 -281.7,421.3 -281.4,421.3 
		-281.3,421 -281.2,421.3 -280.8,421.3 	"/>
	<polygon class="st0" points="-279.2,421.5 -279.1,421.8 -279.4,421.6 -279.7,421.8 -279.5,421.5 -279.8,421.3 -279.5,421.3 
		-279.4,421 -279.3,421.3 -278.9,421.3 	"/>
	<polygon class="st0" points="-277.3,421.5 -277.2,421.8 -277.5,421.6 -277.8,421.8 -277.6,421.5 -277.9,421.3 -277.6,421.3 
		-277.5,421 -277.3,421.3 -277,421.3 	"/>
</g>
</svg>
