<svg xmlns="http://www.w3.org/2000/svg" width="53" height="17">
    <path fill="#FFF" fill-rule="evenodd" d="M.003 8.72l11.286-.247 9.286-.125c4.762-.052 5.524-.018 10.286-.026l14.285.003h2.067L45.44 9.397l-12.489 7.552-.457-.937c6.463-2.53 12.945-5.011 19.437-7.464l-.018.673c-3.22-1.519-6.444-3.03-9.649-4.581L32.643-.006l9.8 4.249c3.267 1.413 6.516 2.868 9.769 4.313l.781.347-.799.326a1729.668 1729.668 0 0 1-19.323 7.76l-.457-.937 12.434-7.644.293 1.072-14.284-.107c-4.762-.045-5.524-.049-10.285-.137l-9.284-.197L.003 8.72z" opacity=".302"/>
</svg>
