<?xml version="1.0" encoding="utf-8"?>
<!-- Generator: Adobe Illustrator 19.0.1, SVG Export Plug-In . SVG Version: 6.00 Build 0)  -->
<svg version="1.1" id="Layer_1" xmlns="http://www.w3.org/2000/svg" xmlns:xlink="http://www.w3.org/1999/xlink" x="0px" y="0px"
	 viewBox="-286.5 414.4 20 13" style="enable-background:new -286.5 414.4 20 13;" xml:space="preserve">
<style type="text/css">
	.st0{fill:#AE0F0D;}
	.st1{fill:#FED514;}
</style>
<g>
	<rect x="-286.5" y="414.4" class="st0" width="20" height="13"/>
	<polygon class="st1" points="-281.2,419.1 -280.6,420.9 -282.2,419.8 -283.8,420.9 -283.2,419.1 -284.8,418.1 -282.8,418.1 
		-282.2,416.3 -281.6,418.1 -279.6,418.1 	"/>
	<polygon class="st1" points="-278.1,416.2 -278,416.6 -278.4,416.4 -278.8,416.6 -278.6,416.2 -279,415.9 -278.5,415.9 
		-278.4,415.5 -278.2,415.9 -277.7,415.9 	"/>
	<polygon class="st1" points="-278.1,421.3 -278,421.8 -278.4,421.5 -278.8,421.8 -278.6,421.3 -279,421.1 -278.5,421.1 
		-278.4,420.6 -278.2,421.1 -277.7,421.1 	"/>
	<polygon class="st1" points="-276.3,419.9 -276.1,420.3 -276.5,420 -276.9,420.3 -276.8,419.9 -277.2,419.6 -276.7,419.6 
		-276.5,419.2 -276.4,419.6 -275.9,419.6 	"/>
	<polygon class="st1" points="-276.3,417.6 -276.1,418 -276.5,417.8 -276.9,418 -276.8,417.6 -277.2,417.3 -276.7,417.3 
		-276.5,416.9 -276.4,417.3 -275.9,417.3 	"/>
</g>
</svg>
