<svg xmlns="http://www.w3.org/2000/svg" xmlns:xlink="http://www.w3.org/1999/xlink" width="64" height="64" viewBox="0 0 64 64"><defs><style>.a,.b{fill:#fff;}.a{stroke:#707070;opacity:0;}.b,.c{stroke:rgba(0,0,0,0);}.c{stroke-miterlimit:10;fill:url(#a);}.d{stroke:none;}.e{fill:none;}</style><linearGradient id="a" x1="0.5" x2="0.5" y2="1" gradientUnits="objectBoundingBox"><stop offset="0" stop-color="#4267b2"/><stop offset="1" stop-color="#1b3568"/></linearGradient></defs><g transform="translate(-1488 -1938)"><g transform="translate(1488 1938)"><g class="a"><rect class="d" width="64" height="64"/><rect class="e" x="0.5" y="0.5" width="63" height="63"/></g><path class="b" d="M3.089.371,25,0V29.163L16.109,35H8.77L3.089,29.163Z" transform="translate(22 17)"/><path class="c" d="M-12571.5,14465.5h-7.5a11.425,11.425,0,0,1-8.13-3.367,11.425,11.425,0,0,1-3.367-8.13v-17a11.434,11.434,0,0,1,3.367-8.134,11.425,11.425,0,0,1,8.13-3.367h17a11.434,11.434,0,0,1,8.134,3.367,11.434,11.434,0,0,1,3.367,8.134v17a11.425,11.425,0,0,1-3.367,8.13,11.434,11.434,0,0,1-8.134,3.367h-2.5v-14h5l3-6h-8v-5a1.755,1.755,0,0,1,.981-1.5,4.124,4.124,0,0,1,2.017-.5h2v-6h-5a6.773,6.773,0,0,0-7,7v6h-5v6h5v14Z" transform="translate(12602.5 -14413.5)"/></g></g></svg>