<svg xmlns="http://www.w3.org/2000/svg" width="13.568" height="45.542" viewBox="0 0 13.568 45.542"><defs><style>.a{fill:#242121;}.b,.c{stroke:none;}.c{fill:#535353;}</style></defs><g class="a" transform="translate(-872.176 -486.674)"><path class="b" d="M 878.943359375 531.7158203125 C 875.0436401367188 531.7158203125 872.67578125 529.3344116210938 872.67578125 528.287109375 L 872.67578125 526.6689453125 C 872.67578125 524.950927734375 875.0201416015625 523.173828125 878.943359375 523.173828125 C 882.835205078125 523.173828125 885.244140625 525.1254272460938 885.244140625 526.93359375 L 885.244140625 527.1184692382813 L 885.244140625 528.287109375 C 885.244140625 529.0616455078125 884.6304931640625 529.9061279296875 883.6026611328125 530.546142578125 C 882.3911743164063 531.3004150390625 880.7365112304688 531.7158203125 878.943359375 531.7158203125 Z"/><path class="c" d="M 878.943359375 523.673828125 C 875.380859375 523.673828125 873.17578125 525.228515625 873.17578125 526.6689453125 L 873.17578125 528.287109375 C 873.17578125 528.5073852539063 873.5339965820313 529.2337646484375 874.5984497070313 529.9569702148438 C 875.2903442382813 530.4271240234375 876.7748413085938 531.2158203125 878.943359375 531.2158203125 C 882.537353515625 531.2158203125 884.744140625 529.5100708007813 884.744140625 528.287109375 L 884.744140625 527.1033325195313 L 884.744140625 526.93359375 C 884.744140625 526.1990356445313 884.2299194335938 525.4318237304688 883.3333740234375 524.8286743164063 C 882.2263793945313 524.083984375 880.6672973632813 523.673828125 878.943359375 523.673828125 M 878.943359375 522.673828125 C 883.07080078125 522.673828125 885.744140625 524.7875366210938 885.744140625 526.93359375 C 885.744140625 527.0870361328125 885.744140625 527.1184692382813 885.744140625 527.1184692382813 L 885.744140625 527.1033325195313 C 885.744140625 527.1033325195313 885.744140625 527.236083984375 885.744140625 528.287109375 C 885.744140625 530.2047119140625 883.005126953125 532.2158203125 878.943359375 532.2158203125 C 874.881591796875 532.2158203125 872.17578125 529.70751953125 872.17578125 528.287109375 C 872.17578125 526.86669921875 872.17578125 527.0321655273438 872.17578125 526.6689453125 C 872.17578125 524.59326171875 874.81591796875 522.673828125 878.943359375 522.673828125 Z"/></g><g class="a" transform="translate(-872.176 -490.674)"><path class="b" d="M 878.943359375 531.7158203125 C 875.0436401367188 531.7158203125 872.67578125 529.3344116210938 872.67578125 528.287109375 L 872.67578125 526.6689453125 C 872.67578125 524.950927734375 875.0201416015625 523.173828125 878.943359375 523.173828125 C 882.835205078125 523.173828125 885.244140625 525.1254272460938 885.244140625 526.93359375 L 885.244140625 527.1184692382813 L 885.244140625 528.287109375 C 885.244140625 529.0616455078125 884.6304931640625 529.9061279296875 883.6026611328125 530.546142578125 C 882.3911743164063 531.3004150390625 880.7365112304688 531.7158203125 878.943359375 531.7158203125 Z"/><path class="c" d="M 878.943359375 523.673828125 C 875.380859375 523.673828125 873.17578125 525.228515625 873.17578125 526.6689453125 L 873.17578125 528.287109375 C 873.17578125 528.5073852539063 873.5339965820313 529.2337646484375 874.5984497070313 529.9569702148438 C 875.2903442382813 530.4271240234375 876.7748413085938 531.2158203125 878.943359375 531.2158203125 C 882.537353515625 531.2158203125 884.744140625 529.5100708007813 884.744140625 528.287109375 L 884.744140625 527.1033325195313 L 884.744140625 526.93359375 C 884.744140625 526.1990356445313 884.2299194335938 525.4318237304688 883.3333740234375 524.8286743164063 C 882.2263793945313 524.083984375 880.6672973632813 523.673828125 878.943359375 523.673828125 M 878.943359375 522.673828125 C 883.07080078125 522.673828125 885.744140625 524.7875366210938 885.744140625 526.93359375 C 885.744140625 527.0870361328125 885.744140625 527.1184692382813 885.744140625 527.1184692382813 L 885.744140625 527.1033325195313 C 885.744140625 527.1033325195313 885.744140625 527.236083984375 885.744140625 528.287109375 C 885.744140625 530.2047119140625 883.005126953125 532.2158203125 878.943359375 532.2158203125 C 874.881591796875 532.2158203125 872.17578125 529.70751953125 872.17578125 528.287109375 C 872.17578125 526.86669921875 872.17578125 527.0321655273438 872.17578125 526.6689453125 C 872.17578125 524.59326171875 874.81591796875 522.673828125 878.943359375 522.673828125 Z"/></g><g class="a" transform="translate(-872.176 -494.673)"><path class="b" d="M 878.943359375 531.7158203125 C 875.0436401367188 531.7158203125 872.67578125 529.3344116210938 872.67578125 528.287109375 L 872.67578125 526.6689453125 C 872.67578125 524.950927734375 875.0201416015625 523.173828125 878.943359375 523.173828125 C 882.835205078125 523.173828125 885.244140625 525.1254272460938 885.244140625 526.93359375 L 885.244140625 527.1184692382813 L 885.244140625 528.287109375 C 885.244140625 529.0616455078125 884.6304931640625 529.9061279296875 883.6026611328125 530.546142578125 C 882.3911743164063 531.3004150390625 880.7365112304688 531.7158203125 878.943359375 531.7158203125 Z"/><path class="c" d="M 878.943359375 523.673828125 C 875.380859375 523.673828125 873.17578125 525.228515625 873.17578125 526.6689453125 L 873.17578125 528.287109375 C 873.17578125 528.5073852539063 873.5339965820313 529.2337646484375 874.5984497070313 529.9569702148438 C 875.2903442382813 530.4271240234375 876.7748413085938 531.2158203125 878.943359375 531.2158203125 C 882.537353515625 531.2158203125 884.744140625 529.5100708007813 884.744140625 528.287109375 L 884.744140625 527.1033325195313 L 884.744140625 526.93359375 C 884.744140625 526.1990356445313 884.2299194335938 525.4318237304688 883.3333740234375 524.8286743164063 C 882.2263793945313 524.083984375 880.6672973632813 523.673828125 878.943359375 523.673828125 M 878.943359375 522.673828125 C 883.07080078125 522.673828125 885.744140625 524.7875366210938 885.744140625 526.93359375 C 885.744140625 527.0870361328125 885.744140625 527.1184692382813 885.744140625 527.1184692382813 L 885.744140625 527.1033325195313 C 885.744140625 527.1033325195313 885.744140625 527.236083984375 885.744140625 528.287109375 C 885.744140625 530.2047119140625 883.005126953125 532.2158203125 878.943359375 532.2158203125 C 874.881591796875 532.2158203125 872.17578125 529.70751953125 872.17578125 528.287109375 C 872.17578125 526.86669921875 872.17578125 527.0321655273438 872.17578125 526.6689453125 C 872.17578125 524.59326171875 874.81591796875 522.673828125 878.943359375 522.673828125 Z"/></g><g class="a" transform="translate(-872.176 -498.673)"><path class="b" d="M 878.943359375 531.7158203125 C 875.0436401367188 531.7158203125 872.67578125 529.3344116210938 872.67578125 528.287109375 L 872.67578125 526.6689453125 C 872.67578125 524.950927734375 875.0201416015625 523.173828125 878.943359375 523.173828125 C 882.835205078125 523.173828125 885.244140625 525.1254272460938 885.244140625 526.93359375 L 885.244140625 527.1184692382813 L 885.244140625 528.287109375 C 885.244140625 529.0616455078125 884.6304931640625 529.9061279296875 883.6026611328125 530.546142578125 C 882.3911743164063 531.3004150390625 880.7365112304688 531.7158203125 878.943359375 531.7158203125 Z"/><path class="c" d="M 878.943359375 523.673828125 C 875.380859375 523.673828125 873.17578125 525.228515625 873.17578125 526.6689453125 L 873.17578125 528.287109375 C 873.17578125 528.5073852539063 873.5339965820313 529.2337646484375 874.5984497070313 529.9569702148438 C 875.2903442382813 530.4271240234375 876.7748413085938 531.2158203125 878.943359375 531.2158203125 C 882.537353515625 531.2158203125 884.744140625 529.5100708007813 884.744140625 528.287109375 L 884.744140625 527.1033325195313 L 884.744140625 526.93359375 C 884.744140625 526.1990356445313 884.2299194335938 525.4318237304688 883.3333740234375 524.8286743164063 C 882.2263793945313 524.083984375 880.6672973632813 523.673828125 878.943359375 523.673828125 M 878.943359375 522.673828125 C 883.07080078125 522.673828125 885.744140625 524.7875366210938 885.744140625 526.93359375 C 885.744140625 527.0870361328125 885.744140625 527.1184692382813 885.744140625 527.1184692382813 L 885.744140625 527.1033325195313 C 885.744140625 527.1033325195313 885.744140625 527.236083984375 885.744140625 528.287109375 C 885.744140625 530.2047119140625 883.005126953125 532.2158203125 878.943359375 532.2158203125 C 874.881591796875 532.2158203125 872.17578125 529.70751953125 872.17578125 528.287109375 C 872.17578125 526.86669921875 872.17578125 527.0321655273438 872.17578125 526.6689453125 C 872.17578125 524.59326171875 874.81591796875 522.673828125 878.943359375 522.673828125 Z"/></g><g class="a" transform="translate(-872.176 -502.674)"><path class="b" d="M 878.943359375 531.7158203125 C 875.0436401367188 531.7158203125 872.67578125 529.3344116210938 872.67578125 528.287109375 L 872.67578125 526.6689453125 C 872.67578125 524.950927734375 875.0201416015625 523.173828125 878.943359375 523.173828125 C 882.835205078125 523.173828125 885.244140625 525.1254272460938 885.244140625 526.93359375 L 885.244140625 527.1184692382813 L 885.244140625 528.287109375 C 885.244140625 529.0616455078125 884.6304931640625 529.9061279296875 883.6026611328125 530.546142578125 C 882.3911743164063 531.3004150390625 880.7365112304688 531.7158203125 878.943359375 531.7158203125 Z"/><path class="c" d="M 878.943359375 523.673828125 C 875.380859375 523.673828125 873.17578125 525.228515625 873.17578125 526.6689453125 L 873.17578125 528.287109375 C 873.17578125 528.5073852539063 873.5339965820313 529.2337646484375 874.5984497070313 529.9569702148438 C 875.2903442382813 530.4271240234375 876.7748413085938 531.2158203125 878.943359375 531.2158203125 C 882.537353515625 531.2158203125 884.744140625 529.5100708007813 884.744140625 528.287109375 L 884.744140625 527.1033325195313 L 884.744140625 526.93359375 C 884.744140625 526.1990356445313 884.2299194335938 525.4318237304688 883.3333740234375 524.8286743164063 C 882.2263793945313 524.083984375 880.6672973632813 523.673828125 878.943359375 523.673828125 M 878.943359375 522.673828125 C 883.07080078125 522.673828125 885.744140625 524.7875366210938 885.744140625 526.93359375 C 885.744140625 527.0870361328125 885.744140625 527.1184692382813 885.744140625 527.1184692382813 L 885.744140625 527.1033325195313 C 885.744140625 527.1033325195313 885.744140625 527.236083984375 885.744140625 528.287109375 C 885.744140625 530.2047119140625 883.005126953125 532.2158203125 878.943359375 532.2158203125 C 874.881591796875 532.2158203125 872.17578125 529.70751953125 872.17578125 528.287109375 C 872.17578125 526.86669921875 872.17578125 527.0321655273438 872.17578125 526.6689453125 C 872.17578125 524.59326171875 874.81591796875 522.673828125 878.943359375 522.673828125 Z"/></g><g class="a" transform="translate(-872.176 -506.674)"><path class="b" d="M 878.943359375 531.7158203125 C 875.0436401367188 531.7158203125 872.67578125 529.3344116210938 872.67578125 528.287109375 L 872.67578125 526.6689453125 C 872.67578125 524.950927734375 875.0201416015625 523.173828125 878.943359375 523.173828125 C 882.835205078125 523.173828125 885.244140625 525.1254272460938 885.244140625 526.93359375 L 885.244140625 527.1184692382813 L 885.244140625 528.287109375 C 885.244140625 529.0616455078125 884.6304931640625 529.9061279296875 883.6026611328125 530.546142578125 C 882.3911743164063 531.3004150390625 880.7365112304688 531.7158203125 878.943359375 531.7158203125 Z"/><path class="c" d="M 878.943359375 523.673828125 C 875.380859375 523.673828125 873.17578125 525.228515625 873.17578125 526.6689453125 L 873.17578125 528.287109375 C 873.17578125 528.5073852539063 873.5339965820313 529.2337646484375 874.5984497070313 529.9569702148438 C 875.2903442382813 530.4271240234375 876.7748413085938 531.2158203125 878.943359375 531.2158203125 C 882.537353515625 531.2158203125 884.744140625 529.5100708007813 884.744140625 528.287109375 L 884.744140625 527.1033325195313 L 884.744140625 526.93359375 C 884.744140625 526.1990356445313 884.2299194335938 525.4318237304688 883.3333740234375 524.8286743164063 C 882.2263793945313 524.083984375 880.6672973632813 523.673828125 878.943359375 523.673828125 M 878.943359375 522.673828125 C 883.07080078125 522.673828125 885.744140625 524.7875366210938 885.744140625 526.93359375 C 885.744140625 527.0870361328125 885.744140625 527.1184692382813 885.744140625 527.1184692382813 L 885.744140625 527.1033325195313 C 885.744140625 527.1033325195313 885.744140625 527.236083984375 885.744140625 528.287109375 C 885.744140625 530.2047119140625 883.005126953125 532.2158203125 878.943359375 532.2158203125 C 874.881591796875 532.2158203125 872.17578125 529.70751953125 872.17578125 528.287109375 C 872.17578125 526.86669921875 872.17578125 527.0321655273438 872.17578125 526.6689453125 C 872.17578125 524.59326171875 874.81591796875 522.673828125 878.943359375 522.673828125 Z"/></g><g class="a" transform="translate(-872.176 -510.674)"><path class="b" d="M 878.943359375 531.7158203125 C 875.0436401367188 531.7158203125 872.67578125 529.3344116210938 872.67578125 528.287109375 L 872.67578125 526.6689453125 C 872.67578125 524.950927734375 875.0201416015625 523.173828125 878.943359375 523.173828125 C 882.835205078125 523.173828125 885.244140625 525.1254272460938 885.244140625 526.93359375 L 885.244140625 527.1184692382813 L 885.244140625 528.287109375 C 885.244140625 529.0616455078125 884.6304931640625 529.9061279296875 883.6026611328125 530.546142578125 C 882.3911743164063 531.3004150390625 880.7365112304688 531.7158203125 878.943359375 531.7158203125 Z"/><path class="c" d="M 878.943359375 523.673828125 C 875.380859375 523.673828125 873.17578125 525.228515625 873.17578125 526.6689453125 L 873.17578125 528.287109375 C 873.17578125 528.5073852539063 873.5339965820313 529.2337646484375 874.5984497070313 529.9569702148438 C 875.2903442382813 530.4271240234375 876.7748413085938 531.2158203125 878.943359375 531.2158203125 C 882.537353515625 531.2158203125 884.744140625 529.5100708007813 884.744140625 528.287109375 L 884.744140625 527.1033325195313 L 884.744140625 526.93359375 C 884.744140625 526.1990356445313 884.2299194335938 525.4318237304688 883.3333740234375 524.8286743164063 C 882.2263793945313 524.083984375 880.6672973632813 523.673828125 878.943359375 523.673828125 M 878.943359375 522.673828125 C 883.07080078125 522.673828125 885.744140625 524.7875366210938 885.744140625 526.93359375 C 885.744140625 527.0870361328125 885.744140625 527.1184692382813 885.744140625 527.1184692382813 L 885.744140625 527.1033325195313 C 885.744140625 527.1033325195313 885.744140625 527.236083984375 885.744140625 528.287109375 C 885.744140625 530.2047119140625 883.005126953125 532.2158203125 878.943359375 532.2158203125 C 874.881591796875 532.2158203125 872.17578125 529.70751953125 872.17578125 528.287109375 C 872.17578125 526.86669921875 872.17578125 527.0321655273438 872.17578125 526.6689453125 C 872.17578125 524.59326171875 874.81591796875 522.673828125 878.943359375 522.673828125 Z"/></g><g class="a" transform="translate(-872.176 -514.674)"><path class="b" d="M 878.943359375 531.7158203125 C 875.0436401367188 531.7158203125 872.67578125 529.3344116210938 872.67578125 528.287109375 L 872.67578125 526.6689453125 C 872.67578125 524.950927734375 875.0201416015625 523.173828125 878.943359375 523.173828125 C 882.835205078125 523.173828125 885.244140625 525.1254272460938 885.244140625 526.93359375 L 885.244140625 527.1184692382813 L 885.244140625 528.287109375 C 885.244140625 529.0616455078125 884.6304931640625 529.9061279296875 883.6026611328125 530.546142578125 C 882.3911743164063 531.3004150390625 880.7365112304688 531.7158203125 878.943359375 531.7158203125 Z"/><path class="c" d="M 878.943359375 523.673828125 C 875.380859375 523.673828125 873.17578125 525.228515625 873.17578125 526.6689453125 L 873.17578125 528.287109375 C 873.17578125 528.5073852539063 873.5339965820313 529.2337646484375 874.5984497070313 529.9569702148438 C 875.2903442382813 530.4271240234375 876.7748413085938 531.2158203125 878.943359375 531.2158203125 C 882.537353515625 531.2158203125 884.744140625 529.5100708007813 884.744140625 528.287109375 L 884.744140625 527.1033325195313 L 884.744140625 526.93359375 C 884.744140625 526.1990356445313 884.2299194335938 525.4318237304688 883.3333740234375 524.8286743164063 C 882.2263793945313 524.083984375 880.6672973632813 523.673828125 878.943359375 523.673828125 M 878.943359375 522.673828125 C 883.07080078125 522.673828125 885.744140625 524.7875366210938 885.744140625 526.93359375 C 885.744140625 527.0870361328125 885.744140625 527.1184692382813 885.744140625 527.1184692382813 L 885.744140625 527.1033325195313 C 885.744140625 527.1033325195313 885.744140625 527.236083984375 885.744140625 528.287109375 C 885.744140625 530.2047119140625 883.005126953125 532.2158203125 878.943359375 532.2158203125 C 874.881591796875 532.2158203125 872.17578125 529.70751953125 872.17578125 528.287109375 C 872.17578125 526.86669921875 872.17578125 527.0321655273438 872.17578125 526.6689453125 C 872.17578125 524.59326171875 874.81591796875 522.673828125 878.943359375 522.673828125 Z"/></g><g class="a" transform="translate(-872.176 -518.674)"><path class="b" d="M 878.943359375 531.7158203125 C 875.0436401367188 531.7158203125 872.67578125 529.3344116210938 872.67578125 528.287109375 L 872.67578125 526.6689453125 C 872.67578125 524.950927734375 875.0201416015625 523.173828125 878.943359375 523.173828125 C 882.835205078125 523.173828125 885.244140625 525.1254272460938 885.244140625 526.93359375 L 885.244140625 527.1184692382813 L 885.244140625 528.287109375 C 885.244140625 529.0616455078125 884.6304931640625 529.9061279296875 883.6026611328125 530.546142578125 C 882.3911743164063 531.3004150390625 880.7365112304688 531.7158203125 878.943359375 531.7158203125 Z"/><path class="c" d="M 878.943359375 523.673828125 C 875.380859375 523.673828125 873.17578125 525.228515625 873.17578125 526.6689453125 L 873.17578125 528.287109375 C 873.17578125 528.5073852539063 873.5339965820313 529.2337646484375 874.5984497070313 529.9569702148438 C 875.2903442382813 530.4271240234375 876.7748413085938 531.2158203125 878.943359375 531.2158203125 C 882.537353515625 531.2158203125 884.744140625 529.5100708007813 884.744140625 528.287109375 L 884.744140625 527.1033325195313 L 884.744140625 526.93359375 C 884.744140625 526.1990356445313 884.2299194335938 525.4318237304688 883.3333740234375 524.8286743164063 C 882.2263793945313 524.083984375 880.6672973632813 523.673828125 878.943359375 523.673828125 M 878.943359375 522.673828125 C 883.07080078125 522.673828125 885.744140625 524.7875366210938 885.744140625 526.93359375 C 885.744140625 527.0870361328125 885.744140625 527.1184692382813 885.744140625 527.1184692382813 L 885.744140625 527.1033325195313 C 885.744140625 527.1033325195313 885.744140625 527.236083984375 885.744140625 528.287109375 C 885.744140625 530.2047119140625 883.005126953125 532.2158203125 878.943359375 532.2158203125 C 874.881591796875 532.2158203125 872.17578125 529.70751953125 872.17578125 528.287109375 C 872.17578125 526.86669921875 872.17578125 527.0321655273438 872.17578125 526.6689453125 C 872.17578125 524.59326171875 874.81591796875 522.673828125 878.943359375 522.673828125 Z"/></g><g class="a" transform="translate(-872.176 -522.674)"><path class="b" d="M 878.943359375 531.7158203125 C 875.0436401367188 531.7158203125 872.67578125 529.3344116210938 872.67578125 528.287109375 L 872.67578125 526.6689453125 C 872.67578125 524.950927734375 875.0201416015625 523.173828125 878.943359375 523.173828125 C 882.835205078125 523.173828125 885.244140625 525.1254272460938 885.244140625 526.93359375 L 885.244140625 527.1184692382813 L 885.244140625 528.287109375 C 885.244140625 529.0616455078125 884.6304931640625 529.9061279296875 883.6026611328125 530.546142578125 C 882.3911743164063 531.3004150390625 880.7365112304688 531.7158203125 878.943359375 531.7158203125 Z"/><path class="c" d="M 878.943359375 523.673828125 C 875.380859375 523.673828125 873.17578125 525.228515625 873.17578125 526.6689453125 L 873.17578125 528.287109375 C 873.17578125 528.5073852539063 873.5339965820313 529.2337646484375 874.5984497070313 529.9569702148438 C 875.2903442382813 530.4271240234375 876.7748413085938 531.2158203125 878.943359375 531.2158203125 C 882.537353515625 531.2158203125 884.744140625 529.5100708007813 884.744140625 528.287109375 L 884.744140625 527.1033325195313 L 884.744140625 526.93359375 C 884.744140625 526.1990356445313 884.2299194335938 525.4318237304688 883.3333740234375 524.8286743164063 C 882.2263793945313 524.083984375 880.6672973632813 523.673828125 878.943359375 523.673828125 M 878.943359375 522.673828125 C 883.07080078125 522.673828125 885.744140625 524.7875366210938 885.744140625 526.93359375 C 885.744140625 527.0870361328125 885.744140625 527.1184692382813 885.744140625 527.1184692382813 L 885.744140625 527.1033325195313 C 885.744140625 527.1033325195313 885.744140625 527.236083984375 885.744140625 528.287109375 C 885.744140625 530.2047119140625 883.005126953125 532.2158203125 878.943359375 532.2158203125 C 874.881591796875 532.2158203125 872.17578125 529.70751953125 872.17578125 528.287109375 C 872.17578125 526.86669921875 872.17578125 527.0321655273438 872.17578125 526.6689453125 C 872.17578125 524.59326171875 874.81591796875 522.673828125 878.943359375 522.673828125 Z"/></g></svg>