<svg xmlns="http://www.w3.org/2000/svg" xmlns:xlink="http://www.w3.org/1999/xlink" width="35.512" height="53.18" viewBox="0 0 35.512 53.18"><defs><style>.a{fill:url(#a);}.b{fill:url(#b);}.c{fill:none;stroke:#361800;stroke-linecap:round;stroke-miterlimit:10;stroke-width:2px;}</style><radialGradient id="a" cx="0.5" cy="0.447" r="0.638" gradientTransform="translate(0.995 -0.053) rotate(90) scale(1 1.108)" gradientUnits="objectBoundingBox"><stop offset="0" stop-color="#c77f42"/><stop offset="0.182" stop-color="#a86a3b"/><stop offset="0.68" stop-color="#944b20"/><stop offset="0.883" stop-color="#361509"/><stop offset="1" stop-color="#33160b"/></radialGradient><linearGradient id="b" x1="0.735" y1="-0.325" x2="0.532" y2="0.911" gradientUnits="objectBoundingBox"><stop offset="0" stop-color="#c77f42"/><stop offset="0.128" stop-color="#a86a3b"/><stop offset="0.388" stop-color="#a1582c"/><stop offset="0.612" stop-color="#783d1c"/><stop offset="1" stop-color="#5f2c19"/></linearGradient></defs><g transform="translate(0 0)"><g transform="translate(0 0)"><path class="a" d="M2940.467,202.159a107.046,107.046,0,0,0-7.338,10.021c-3.423,5.387-4.992,14.492-1.262,20.041,6.213,9.244,26.672,7.935,31.719-1.026a16.1,16.1,0,0,0,.315-13.492,71.849,71.849,0,0,0-5.128-8.285,12.928,12.928,0,0,1-2.683-6.312,5.659,5.659,0,0,1,.631-3.708c1.443-2.285,4.421-2.364,4.734-2.367a3.319,3.319,0,0,0-1.736-4.024,3.031,3.031,0,0,0,.473-1.5c.06-2.286-2.889-4.107-4.813-4.734a9.163,9.163,0,0,0-6.785.71,2.849,2.849,0,0,0-5.286-.552,2.828,2.828,0,0,0-1.894-1.026,2.442,2.442,0,0,0-2.446,1.262,2.3,2.3,0,0,0,.079,1.815,11.34,11.34,0,0,1,2.919,2.446,8.739,8.739,0,0,1,2.052,3.708C2944.463,197.646,2942.434,199.817,2940.467,202.159Z" transform="translate(-2929.714 -185.383)"/><path class="b" d="M3057.4,192.059a5.817,5.817,0,0,0-3.472.552,3.512,3.512,0,0,0-3.551-2.683,3.28,3.28,0,0,0-2.209,1.5,13.469,13.469,0,0,0-2.919-2.446,2.294,2.294,0,0,1-.079-1.815,2.441,2.441,0,0,1,2.446-1.262,2.827,2.827,0,0,1,1.894,1.026,2.849,2.849,0,0,1,5.286.552,9.163,9.163,0,0,1,6.785-.71c1.924.627,4.873,2.448,4.813,4.734a3.029,3.029,0,0,1-.473,1.5,3.32,3.32,0,0,1,1.736,4.024,9.088,9.088,0,0,0-7.022-3.314A5.827,5.827,0,0,0,3057.4,192.059Z" transform="translate(-3035.917 -185.383)"/><path class="c" d="M3076,357a16.767,16.767,0,0,0,15.465,4.971" transform="translate(-3064.458 -343.459)"/><path class="c" d="M3095,331a17.116,17.116,0,0,0,13.887,4.5" transform="translate(-3081.959 -319.511)"/><path class="c" d="M3187.4,427.184a27.34,27.34,0,0,0,2.288,12.753" transform="translate(-3167.02 -408.105)"/><path class="c" d="M3217,431c.16,1.284-.082,3.191.947,5.286a16.837,16.837,0,0,0,4.024,4.655" transform="translate(-3194.333 -411.62)"/></g></g></svg>