<?xml version="1.0" encoding="utf-8"?>
<!-- Generator: Adobe Illustrator 19.0.1, SVG Export Plug-In . SVG Version: 6.00 Build 0)  -->
<svg version="1.1" id="Layer_1" xmlns="http://www.w3.org/2000/svg" xmlns:xlink="http://www.w3.org/1999/xlink" x="0px" y="0px"
	 viewBox="-286.5 414.4 20 13" style="enable-background:new -286.5 414.4 20 13;" xml:space="preserve">
<style type="text/css">
	.st0{fill:#BF0000;}
	.st1{fill:#FFFFFF;}
</style>
<g>
	<rect x="-286.5" y="414.4" class="st0" width="20" height="13"/>
	<path class="st1" d="M-266.5,418.1h-6.9c-0.5-1.1-1.5-2-2.6-2.6v-1.2h-4.8v1.2c-1.2,0.5-2.1,1.4-2.6,2.6h-3.1v4.6h3.1
		c0.5,1.1,1.5,2,2.6,2.6v2.1h4.8v-2.1c1.2-0.5,2.1-1.4,2.6-2.6h6.9V418.1z"/>
	<path d="M-266.5,419h-7.3c-0.5-1.5-1.6-2.6-3.1-3.1v-1.6h-2.9v1.6c-1.5,0.5-2.7,1.6-3.1,3.1h-3.5v2.8h3.5c0.5,1.5,1.6,2.6,3.1,3.1
		v2.5h2.9v-2.5c1.5-0.5,2.7-1.6,3.1-3.1h7.3V419z"/>
	<ellipse class="st1" cx="-278.4" cy="420.4" rx="3.9" ry="3.8"/>
	<path d="M-276.9,421.2L-276.9,421.2c0.6,0.2,1.1,0.5,1.5,0.8l0-3.3c-0.7,0.6-1.5,1.1-2.5,1.3c0.1-0.4,0.2-0.7,0.3-1.1v0l0,0
		c0.2-0.5,0.5-1,0.8-1.4l-3.3,0c0.6,0.7,1.2,1.6,1.3,2.6c-1-0.1-1.9-0.7-2.6-1.3l0,3.3c0.4-0.4,0.9-0.6,1.5-0.8l0,0h0
		c0.4-0.1,0.7-0.3,1.1-0.3c-0.2,0.9-0.7,1.7-1.3,2.4l3.3,0c-0.4-0.4-0.7-0.9-0.8-1.5l0,0v0c-0.1-0.3-0.2-0.6-0.3-0.9
		C-277.5,421-277.2,421.1-276.9,421.2L-276.9,421.2L-276.9,421.2z"/>
</g>
</svg>
