<svg xmlns="http://www.w3.org/2000/svg" viewBox="0 0 30 30" style="
    fill: white;
" >
    <path d="M 6 4 C 4.895 4 4 4.895 4 6 L 4 24 C 4 25.105 4.895 26 6 26 L 24 26 C 25.105 26 26 25.105 26 24 L 26 6 C 26 4.895 25.105 4 24 4 L 6 4 z M 12.164062 8.0136719 C 12.708063 8.1046719 13.077328 8.6190625 12.986328 9.1640625 L 12.847656 10 L 18.818359 10 L 19.013672 8.8359375 C 19.104672 8.2929375 19.616062 7.9246719 20.164062 8.0136719 C 20.708063 8.1046719 21.077328 8.6190625 20.986328 9.1640625 L 20.847656 10 L 22 10 C 22.552 10 23 10.448 23 11 C 23 11.552 22.552 12 22 12 L 20.513672 12 L 19.513672 18 L 21 18 C 21.552 18 22 18.448 22 19 C 22 19.552 21.552 20 21 20 L 19.179688 20 L 18.986328 21.164062 C 18.905328 21.652062 18.481953 22 18.001953 22 C 17.947953 22 17.891938 21.996328 17.835938 21.986328 C 17.291937 21.895328 16.922672 21.380937 17.013672 20.835938 L 17.152344 20 L 11.179688 20 L 10.986328 21.164062 C 10.905328 21.652062 10.481953 22 10.001953 22 C 9.9479531 22 9.8919375 21.996328 9.8359375 21.986328 C 9.2919375 21.895328 8.9226719 21.380937 9.0136719 20.835938 L 9.1523438 20 L 8 20 C 7.448 20 7 19.552 7 19 C 7 18.448 7.448 18 8 18 L 9.4863281 18 L 10.486328 12 L 9 12 C 8.448 12 8 11.552 8 11 C 8 10.448 8.448 10 9 10 L 10.820312 10 L 11.013672 8.8359375 C 11.104672 8.2929375 11.617062 7.9246719 12.164062 8.0136719 z M 12.513672 12 L 11.513672 18 L 17.486328 18 L 18.486328 12 L 12.513672 12 z"></path>
</svg>