<?xml version="1.0" encoding="utf-8"?>
<!-- Generator: Adobe Illustrator 21.1.0, SVG Export Plug-In . SVG Version: 6.00 Build 0)  -->
<svg version="1.1" id="Слой_1" xmlns="http://www.w3.org/2000/svg" xmlns:xlink="http://www.w3.org/1999/xlink" x="0px" y="0px"
	 viewBox="0 0 19.7 11" style="enable-background:new 0 0 19.7 11;" xml:space="preserve">
<style type="text/css">
	.st0{fill:#FFFFFF;}
</style>
<g>
	<path class="st0" d="M12.3,9.2c-0.7-0.1-1.4-0.4-2-0.8v1.1c0.1,0.4,0.3,0.7,0.6,0.8c0.5,0.3,1.1,0.5,1.7,0.6c1.6,0.3,3.2,0.3,4.7,0
		c0.6-0.1,1.2-0.3,1.7-0.6c0.3-0.1,0.6-0.4,0.6-0.8V8.4c-0.6,0.4-1.3,0.7-2,0.8C15.9,9.5,14.1,9.5,12.3,9.2z"/>
	<polygon class="st0" points="5,1 3,1 3,4 0,4 0,6 3,6 3,9 5,9 5,6 8,6 8,4 5,4 	"/>
	<path class="st0" d="M19.1,0.8c-0.5-0.3-1.1-0.5-1.7-0.6c-1.6-0.3-3.2-0.3-4.7,0c-0.6,0.1-1.2,0.3-1.7,0.6l0,0
		c-0.3,0.1-0.6,0.4-0.6,0.8v0.8c0.1,0.4,0.3,0.7,0.6,0.8c0.5,0.3,1.1,0.5,1.7,0.6c1.6,0.3,3.2,0.3,4.7,0c0.6-0.1,1.2-0.3,1.7-0.6
		c0.3-0.1,0.6-0.4,0.6-0.8V1.6C19.6,1.2,19.4,0.9,19.1,0.8z"/>
	<path class="st0" d="M12.3,6.8c-0.7-0.1-1.4-0.4-2-0.8v1c0.1,0.4,0.3,0.7,0.6,0.8c0.5,0.3,1.1,0.5,1.7,0.6c1.6,0.3,3.2,0.3,4.7,0
		c0.6-0.1,1.2-0.3,1.7-0.6c0.3-0.1,0.6-0.4,0.6-0.8V6c-0.6,0.4-1.3,0.7-2,0.8C15.9,7.2,14.1,7.2,12.3,6.8z"/>
	<path class="st0" d="M12.3,4.5c-0.7-0.1-1.4-0.4-2-0.8v1c0.1,0.4,0.3,0.7,0.6,0.8C11.4,5.8,12,6,12.6,6.1c1.6,0.3,3.2,0.3,4.7,0
		C18,6,18.5,5.8,19.1,5.5c0.3-0.1,0.6-0.4,0.6-0.8v-1c-0.6,0.4-1.3,0.7-2,0.8C15.9,4.8,14.1,4.8,12.3,4.5z"/>
</g>
</svg>
