<svg xmlns="http://www.w3.org/2000/svg" width="28" height="32" viewBox="0 0 28 32">
  <defs>
    <style>
      .cls-1 {
        fill: #fab81a;
        fill-rule: evenodd;
      }
    </style>
  </defs>
  <path id="Фигура_10" data-name="Фигура 10" class="cls-1" d="M1084.94,1042.68l4.59-1.16a13.436,13.436,0,0,0-3.03-1.97s-4.92,3.2-5.9,6.76c-0.27.09-.54,0.09-0.81,0.18,0.36-4.36,2.33-8,5.1-9.16a0.59,0.59,0,0,0,.36-0.62,0.74,0.74,0,0,0-.36-0.62c-2.77-1.07-4.74-4.71-5.1-9.16a31.627,31.627,0,0,0,13.42,0c-0.36,4.36-2.33,8-5.1,9.16a0.59,0.59,0,0,0-.36.62,0.74,0.74,0,0,0,.36.62,7.179,7.179,0,0,1,3.31,3.02l1.07-.44a9.45,9.45,0,0,0-2.86-3.29c2.68-1.78,4.47-5.69,4.65-10.13a0.94,0.94,0,0,0,.72-0.71c0-.98-3.85-1.78-8.5-1.78-4.74,0-8.5.8-8.5,1.78a1.084,1.084,0,0,0,.72.71c0.18,4.44,2.05,8.35,4.65,10.13-2.68,1.78-4.47,5.69-4.65,10.13a0.954,0.954,0,0,0-.72.71c0,0.89,3.01,1.6,6.94,1.69v-6.47Zm12.11-1.8,2.95,1.69a2.74,2.74,0,0,0-2.95-1.69h0Zm-0.2,3.32-3.22-1.86c-0.45,2.49,3.22,1.86,3.22,1.86h0Zm8.38-2.42a44.441,44.441,0,0,1-4.06,2.13v1.6a26.042,26.042,0,0,0,4.02-2.23Zm-0.19,3.36s-1.73.99-4.05,2.06v1.6a35.977,35.977,0,0,0,4.02-2.14Zm0.15,2.89s-2.15,1.21-4.29,2.28v1.59a40.752,40.752,0,0,0,4.29-2.36v-1.51Zm-8.85-7.32,4.2,2.57a33.924,33.924,0,0,0,3.49-1.95l-4.39-2.58a28.017,28.017,0,0,1-3.3,1.96h0Zm1.79,4.53a26.44,26.44,0,0,1-5.91,1.78l-5.54-3.02v1.42l5.54,3.2a49.927,49.927,0,0,0,5.82-1.87Zm-0.09,3.29a26.44,26.44,0,0,1-5.91,1.78l-5.5-2.99v1.42l5.5,3.16a55.358,55.358,0,0,0,5.91-1.86v-1.51Zm-0.09,3.11a29.039,29.039,0,0,1-6.17,1.87l-5.15-2.82v1.43l5.15,2.98s2.77-.71,6.17-1.95v-1.51Zm-9.75-8,4.29,2.31s2.77-.71,5.19-1.6l-4.29-2.49c-1.17.54-5.19,1.78-5.19,1.78h0Zm17.8,0.27-0.63.35,0.61,0.18v2.49l-0.36.33,0.36,0.27v2.57s-7.14,4.65-14.56,5.89l-5.78-3.43v-2.57l0.41-.4-0.38-.4v-2.67l0.47-.12-0.45-.45v-2.66a45.133,45.133,0,0,0,13.87-5.6l6.44,3.64v2.58Zm-19.41-8.62s-0.99-.8-2.24-2.05a12.143,12.143,0,0,0,7.25-4.17,18.081,18.081,0,0,1-5.01,6.22h0Zm0,0" transform="translate(-1078 -1024)"/>
</svg>
