<svg xmlns="http://www.w3.org/2000/svg" width="28" height="32" viewBox="0 0 28 32">
  <defs>
    <style>
      .cls-1 {
        fill: #fab81a;
        fill-rule: evenodd;
      }
    </style>
  </defs>
  <path id="Фигура_9" data-name="Фигура 9" class="cls-1" d="M1091.99,960.645a2.826,2.826,0,1,0-2.69-2.823A2.756,2.756,0,0,0,1091.99,960.645Zm-11.42,10.865a2.441,2.441,0,0,1,.95.191c1.32-4.6,5.93-7.986,11.41-7.986a12.753,12.753,0,0,1,4.71.887l4.04-2.814-0.43,5.037a10.672,10.672,0,0,1,2.79,3.978l1.96,0.758v5.693l-1.96.758a10.8,10.8,0,0,1-3.69,4.713L1099.62,987h-3.82l-0.25-2.163a13.113,13.113,0,0,1-5.47-.052L1089.7,987h-3.82l-0.52-4.394a10.307,10.307,0,0,1-4.22-8.2c0-.114,0-0.228.01-0.341a0.592,0.592,0,0,0-1.17.149v1.422H1078v-1.422A2.642,2.642,0,0,1,1080.57,971.51Zm18.36,1.378a1.044,1.044,0,1,0-.99-1.043A1.024,1.024,0,0,0,1098.93,972.888ZM1088,969h8v-2h-8v2Z" transform="translate(-1078 -955)"/>
</svg>
