<svg xmlns="http://www.w3.org/2000/svg" width="32.03" height="22" viewBox="0 0 32.03 22">
  <defs>
    <style>
      .cls-1 {
        fill: #fab81a;
        fill-rule: evenodd;
      }
    </style>
  </defs>
  <path id="Фигура_11" data-name="Фигура 11" class="cls-1" d="M1104.53,1102.91v-2.85h-21.42V1115h7.74v0.15a0.847,0.847,0,0,0,.84.85h4.25a0.847,0.847,0,0,0,.84-0.85V1115h7.75v-0.84a2.172,2.172,0,0,0,1.56-.66l0.27-.27,0.98,0.99a2,2,0,0,0,.22.19v0.58h2.08v1.53a2.467,2.467,0,0,1-2.45,2.48h-26.74a2.467,2.467,0,0,1-2.45-2.48V1115h2.08v-15.75a2.228,2.228,0,0,1,2.22-2.25h23.03a2.228,2.228,0,0,1,2.22,2.25v4.69Zm5.42,8.4-2.3-2.33a0.175,0.175,0,0,1,0-.25l1.54-1.56a0.174,0.174,0,0,0-.07-0.29l-6.47-2.24a0.353,0.353,0,0,0-.44.45l2.21,6.54a0.172,0.172,0,0,0,.29.06l1.52-1.54a0.175,0.175,0,0,1,.25,0l2.3,2.34a0.175,0.175,0,0,0,.25,0l0.92-.93a0.175,0.175,0,0,0,0-.25h0Zm-21.17.83h0.62a0.239,0.239,0,0,0,.27-0.27v-0.57a0.322,0.322,0,0,1,.27-0.33,2.234,2.234,0,0,0,1.06-.68,2.024,2.024,0,0,0-.59-3c-0.36-.18-0.74-0.33-1.1-0.47a2.625,2.625,0,0,1-.59-0.33,0.521,0.521,0,0,1,.11-0.93,1.506,1.506,0,0,1,.36-0.06,2.664,2.664,0,0,1,1.35.27c0.21,0.12.3,0.1,0.36-.15s0.15-.47.2-0.72a0.266,0.266,0,0,0-.17-0.33,4.1,4.1,0,0,0-.86-0.27c-0.38-.06-0.38-0.06-0.38-0.45,0-.57,0-0.57-0.56-0.57h-0.24c-0.23.04-.29,0.06-0.29,0.33v0.36c0,0.33,0,.33-0.33.45a1.919,1.919,0,0,0-1.36,1.74,1.767,1.767,0,0,0,1.01,1.67,9.272,9.272,0,0,0,1.24.57,1.743,1.743,0,0,1,.44.27,0.61,0.61,0,0,1-.15,1.08,1.462,1.462,0,0,1-.79.12,3.634,3.634,0,0,1-1.22-.36c-0.21-.12-0.26-0.09-0.35.15-0.06.22-.12,0.42-0.18,0.63a0.312,0.312,0,0,0,.21.48,3.581,3.581,0,0,0,1.1.33c0.29,0.03.29,0.06,0.29,0.35v0.42a0.257,0.257,0,0,0,.27.27h0Zm11.79-2.23h-6.77a0.237,0.237,0,0,0-.24.24v0.87a0.237,0.237,0,0,0,.24.24h6.77a0.246,0.246,0,0,0,.25-0.24v-0.87a0.245,0.245,0,0,0-.25-0.24h0Zm0.25-2.63a0.254,0.254,0,0,0-.25-0.25h-6.77a0.245,0.245,0,0,0-.24.25v0.86a0.246,0.246,0,0,0,.24.25h6.77a0.248,0.248,0,0,0,.25-0.25v-0.86Zm0-2.87a0.254,0.254,0,0,0-.25-0.25h-6.77a0.239,0.239,0,0,0-.24.25v0.86a0.246,0.246,0,0,0,.24.25h6.77a0.254,0.254,0,0,0,.25-0.25v-0.86Zm0,0" transform="translate(-1078 -1097)"/>
</svg>
