<svg xmlns="http://www.w3.org/2000/svg" width="15" height="14" viewBox="0 0 15 14">
  <metadata><?xpacket begin="﻿" id="W5M0MpCehiHzreSzNTczkc9d"?>
<x:xmpmeta xmlns:x="adobe:ns:meta/" x:xmptk="Adobe XMP Core 5.6-c142 79.160924, 2017/07/13-01:06:39        ">
   <rdf:RDF xmlns:rdf="http://www.w3.org/1999/02/22-rdf-syntax-ns#">
      <rdf:Description rdf:about=""/>
   </rdf:RDF>
</x:xmpmeta>
                                                                                                    
                                                                                                    
                                                                                                    
                                                                                                    
                                                                                                    
                                                                                                    
                                                                                                    
                                                                                                    
                                                                                                    
                                                                                                    
                                                                                                    
                                                                                                    
                                                                                                    
                                                                                                    
                                                                                                    
                                                                                                    
                                                                                                    
                                                                                                    
                                                                                                    
                                                                                                    
                           
<?xpacket end="w"?></metadata>
<defs>
    <style>
      .cls-1 {
        fill: #ffc600;
        fill-rule: evenodd;
      }
    </style>
  </defs>
  <path id="_" data-name="" class="cls-1" d="M4673,502.1a3.422,3.422,0,0,1,.04-0.519,3.086,3.086,0,0,1-1.05.183,2.3,2.3,0,0,1-.92-0.168,8.117,8.117,0,0,1-.76-0.337,1.306,1.306,0,0,0-.35-0.154q-0.96,0-.96,2.759a1.007,1.007,0,0,0,.43.923,1.861,1.861,0,0,0,1.08.309h1.05a2.723,2.723,0,0,1,2.07-.994,3.444,3.444,0,0,1-.63-2h0Zm8.97,6.174a3.9,3.9,0,0,0-.11-0.854,8.408,8.408,0,0,0-.21-0.854,2.818,2.818,0,0,0-.33-0.756,3.776,3.776,0,0,0-.49-0.63,1.956,1.956,0,0,0-.66-0.421,2.364,2.364,0,0,0-.87-0.153,1.409,1.409,0,0,0-.34.168l-0.57.364a3.375,3.375,0,0,1-.84.377,3.858,3.858,0,0,1-1.05.169,2.856,2.856,0,0,1-1.06-.169,4.766,4.766,0,0,1-.83-0.377c-0.21-.131-0.41-0.252-0.57-0.364a0.859,0.859,0,0,0-.34-0.168,2.441,2.441,0,0,0-.87.153,1.907,1.907,0,0,0-.67.421,3.316,3.316,0,0,0-.49.63,3.211,3.211,0,0,0-.34.756,8.577,8.577,0,0,0-.19.854,7.332,7.332,0,0,0-.11.854c-0.02.261-.03,0.532-0.03,0.811a2.02,2.02,0,0,0,.57,1.471,2.1,2.1,0,0,0,1.52.546h6.83a2.107,2.107,0,0,0,1.51-.546,1.942,1.942,0,0,0,.57-1.471Zm-8.56-10.585a1.959,1.959,0,0,0-1.42-.588,1.921,1.921,0,0,0-1.41.588,1.991,1.991,0,0,0,0,2.829,1.916,1.916,0,0,0,1.41.587A2,2,0,0,0,4673.41,497.686Zm5.21,2.3a2.664,2.664,0,0,0-2.12-.882,3.113,3.113,0,0,0-2.13.882,2.865,2.865,0,0,0-.88,2.115,2.8,2.8,0,0,0,.88,2.128,3.048,3.048,0,0,0,2.13.868,2.855,2.855,0,0,0,2.12-.868,2.93,2.93,0,0,0,.88-2.128A3.193,3.193,0,0,0,4678.62,499.982Zm4.4,1.12a0.86,0.86,0,0,0-.33.154,4.259,4.259,0,0,1-.76.337,2.82,2.82,0,0,1-.94.168,3.059,3.059,0,0,1-1.03-.183,3.475,3.475,0,0,1-.59,2.521,2.687,2.687,0,0,1,2.06.994h1.05a1.7,1.7,0,0,0,1.08-.309,1.074,1.074,0,0,0,.43-0.923c0-1.839-.32-2.759-0.97-2.759h0Zm-0.61-3.416a1.943,1.943,0,0,0-1.42-.588,1.921,1.921,0,0,0-1.41.588,1.991,1.991,0,0,0,0,2.829,1.916,1.916,0,0,0,1.41.587A2,2,0,0,0,4682.41,497.686Z" transform="translate(-4669 -497.094)"/>
</svg>
