<svg xmlns="http://www.w3.org/2000/svg" width="16" height="16" viewBox="0 0 16 16">
  <metadata><?xpacket begin="﻿" id="W5M0MpCehiHzreSzNTczkc9d"?>
<x:xmpmeta xmlns:x="adobe:ns:meta/" x:xmptk="Adobe XMP Core 5.6-c140 79.160451, 2017/05/06-01:08:21        ">
   <rdf:RDF xmlns:rdf="http://www.w3.org/1999/02/22-rdf-syntax-ns#">
      <rdf:Description rdf:about=""/>
   </rdf:RDF>
</x:xmpmeta>
                                                                                                    
                                                                                                    
                                                                                                    
                                                                                                    
                                                                                                    
                                                                                                    
                                                                                                    
                                                                                                    
                                                                                                    
                                                                                                    
                                                                                                    
                                                                                                    
                                                                                                    
                                                                                                    
                                                                                                    
                                                                                                    
                                                                                                    
                                                                                                    
                                                                                                    
                                                                                                    
                           
<?xpacket end="w"?></metadata>
<defs>
    <style>
      .cls-1 {
        fill: #fff;
        fill-rule: evenodd;
      }
    </style>
  </defs>
  <path id="Фигура_1" data-name="Фигура 1" class="cls-1" d="M1131.8,128a8,8,0,1,1-6.01,13.046,8.04,8.04,0,0,1-.31-9.706,8.026,8.026,0,0,1,6.32-3.34m-2.06,1.954a6.492,6.492,0,0,0-3.18,2.556,6.574,6.574,0,0,0-.98,4.429,11.406,11.406,0,0,1,2.32-3.452,10.167,10.167,0,0,1,3.31-2.2c-0.23-.2-0.47-0.4-0.7-0.606a7.163,7.163,0,0,1,3.94.371,20.458,20.458,0,0,0-2.29,2.695c-0.1-.423-0.18-0.848-0.27-1.271a5.787,5.787,0,0,0-2.14,2.859,9.4,9.4,0,0,0-.34,4.988,7.35,7.35,0,0,0,1.76-.477,6.386,6.386,0,0,0,3.05-2.84c-0.45.012-.89,0.054-1.34,0.073a14.179,14.179,0,0,0,2.26-3.139,21.789,21.789,0,0,1,1.72,3.5c-0.36-.11-0.72-0.219-1.08-0.317a14.505,14.505,0,0,1-.49,4.449,6.486,6.486,0,0,0,3.11-4.659,6.343,6.343,0,0,0-.7-3.939,6.464,6.464,0,0,0-7.96-3.02h0Z" transform="translate(-1124 -128)"/>
</svg>
