<svg xmlns="http://www.w3.org/2000/svg" width="15" height="8" viewBox="0 0 15 8">
  <metadata><?xpacket begin="﻿" id="W5M0MpCehiHzreSzNTczkc9d"?>
<x:xmpmeta xmlns:x="adobe:ns:meta/" x:xmptk="Adobe XMP Core 5.6-c142 79.160924, 2017/07/13-01:06:39        ">
   <rdf:RDF xmlns:rdf="http://www.w3.org/1999/02/22-rdf-syntax-ns#">
      <rdf:Description rdf:about=""/>
   </rdf:RDF>
</x:xmpmeta>
                                                                                                    
                                                                                                    
                                                                                                    
                                                                                                    
                                                                                                    
                                                                                                    
                                                                                                    
                                                                                                    
                                                                                                    
                                                                                                    
                                                                                                    
                                                                                                    
                                                                                                    
                                                                                                    
                                                                                                    
                                                                                                    
                                                                                                    
                                                                                                    
                                                                                                    
                                                                                                    
                           
<?xpacket end="w"?></metadata>
<defs>
    <style>
      .cls-1 {
        fill: #ffc600;
        fill-rule: evenodd;
      }
    </style>
  </defs>
  <path id="_" data-name="" class="cls-1" d="M4857.42,505.779a0.223,0.223,0,0,1-.18.07h-1.5v1.5a0.234,0.234,0,0,1-.07.182,0.226,0.226,0,0,1-.18.07h-0.99a0.226,0.226,0,0,1-.18-0.07,0.242,0.242,0,0,1-.08-0.182v-1.5h-1.49a0.223,0.223,0,0,1-.18-0.07,0.236,0.236,0,0,1-.07-0.183V504.6a0.238,0.238,0,0,1,.07-0.183,0.226,0.226,0,0,1,.18-0.069h1.49v-1.5a0.24,0.24,0,0,1,.08-0.182,0.224,0.224,0,0,1,.18-0.071h0.99a0.224,0.224,0,0,1,.18.071,0.233,0.233,0,0,1,.07.182v1.5h1.5a0.226,0.226,0,0,1,.18.069,0.238,0.238,0,0,1,.07.183V505.6A0.236,0.236,0,0,1,4857.42,505.779Zm4.29,1.022a0.984,0.984,0,0,1-.72.294,1.086,1.086,0,0,1-.7-0.294,0.876,0.876,0,0,1-.29-0.7,1.087,1.087,0,0,1,.29-0.715,0.935,0.935,0,0,1,.7-0.293A1,1,0,0,1,4862,506.1,0.862,0.862,0,0,1,4861.71,506.8Zm2-2a0.845,0.845,0,0,1-.72.294,1.322,1.322,0,0,1-.7-0.294,0.83,0.83,0,0,1-.29-0.7,1.014,1.014,0,0,1,.29-0.715,1.039,1.039,0,0,1,.7-0.279,0.948,0.948,0,0,1,.72.279,1,1,0,0,1,.29.715A0.909,0.909,0,0,1,4863.71,504.8Zm1.12-2.534A3.9,3.9,0,0,0,4862,501.1h-7a3.86,3.86,0,0,0-2.83,1.163,3.788,3.788,0,0,0-1.17,2.828,3.944,3.944,0,0,0,1.17,2.827,3.984,3.984,0,0,0,5.46.183h1.72a4.009,4.009,0,0,0,5.48-.183,3.863,3.863,0,0,0,1.16-2.827A3.787,3.787,0,0,0,4864.83,502.265Z" transform="translate(-4851 -501.094)"/>
</svg>
