<svg xmlns="http://www.w3.org/2000/svg" width="14.994" height="14" viewBox="0 0 14.994 14">
  <path id="_" data-name="" d="M1269,286.1a3.867,3.867,0,0,1,.042-.519,3.126,3.126,0,0,1-1.048.183,2.328,2.328,0,0,1-.926-.168,7.928,7.928,0,0,1-.755-.337,1.446,1.446,0,0,0-.349-.154q-.964,0-.966,2.758a1.014,1.014,0,0,0,.433.924,1.859,1.859,0,0,0,1.078.309h1.049a2.73,2.73,0,0,1,2.073-.994,3.441,3.441,0,0,1-.631-2Zm8.973,6.174a4.775,4.775,0,0,0-.111-.854c-.064-.309-.135-.593-.208-.854a3.111,3.111,0,0,0-.338-.756,3.385,3.385,0,0,0-.492-.63,1.883,1.883,0,0,0-.655-.42,2.373,2.373,0,0,0-.869-.154,1.366,1.366,0,0,0-.338.168l-.572.364a3.494,3.494,0,0,1-.839.377,3.8,3.8,0,0,1-1.05.169,2.9,2.9,0,0,1-1.065-.169,4.646,4.646,0,0,1-.827-.377c-.214-.131-.406-.252-.572-.364a.875.875,0,0,0-.338-.168,2.434,2.434,0,0,0-.868.154,1.858,1.858,0,0,0-.671.42,3.413,3.413,0,0,0-.49.63,3.03,3.03,0,0,0-.338.756c-.075.261-.139.546-.2.854a7.981,7.981,0,0,0-.111.854c-.02.261-.029.532-.029.812a2,2,0,0,0,.572,1.47,2.086,2.086,0,0,0,1.516.546h6.832a2.106,2.106,0,0,0,1.512-.546,1.934,1.934,0,0,0,.572-1.47Zm-8.567-10.584a1.991,1.991,0,1,0,.589,1.414A1.928,1.928,0,0,0,1269.4,281.686Zm5.21,2.3a2.64,2.64,0,0,0-2.114-.882,3.1,3.1,0,0,0-2.13.882,2.873,2.873,0,0,0-.882,2.115,2.783,2.783,0,0,0,.882,2.128,3.037,3.037,0,0,0,2.13.868,2.839,2.839,0,0,0,2.114-.868,2.9,2.9,0,0,0,.881-2.128A3.147,3.147,0,0,0,1274.613,283.982Zm4.409,1.12a.838.838,0,0,0-.337.154,4.254,4.254,0,0,1-.755.337,2.818,2.818,0,0,1-.94.168,3.089,3.089,0,0,1-1.035-.183,3.889,3.889,0,0,1,.042.519,3.444,3.444,0,0,1-.63,2,2.691,2.691,0,0,1,2.059.994h1.048a1.7,1.7,0,0,0,1.078-.309,1.078,1.078,0,0,0,.435-.924q0-2.758-.966-2.758Zm-.617-3.416a2,2,0,1,0,.587,1.414A1.926,1.926,0,0,0,1278.405,281.686Z" transform="translate(-1264.995 -281.098)" fill="#71ff37"/>
</svg>
