<svg xmlns="http://www.w3.org/2000/svg" width="20" height="20">
    <path fill="#DF7300" fill-rule="evenodd" d="M19.346 7.991H.65c-.36 0-.653-.3-.653-.669V5.314c0-.738.585-1.337 1.305-1.337h1.451A2.41 2.41 0 0 1 2.4 2.945C2.283 1.762 2.891.702 3.924.232a2.51 2.51 0 0 1 2.787.459l1.841 1.712a1.931 1.931 0 0 1 1.446-.657c.571 0 1.085.253 1.443.655l1.84-1.709a2.506 2.506 0 0 1 2.786-.46c1.034.47 1.641 1.53 1.525 2.713-.036.371-.163.72-.354 1.032h1.455c.721 0 1.306.599 1.306 1.337v2.008a.662.662 0 0 1-.653.669zM5.835 1.683a1.23 1.23 0 0 0-1.404-.218 1.308 1.308 0 0 0-.705.871c-.202.866.437 1.641 1.247 1.641H8.04v-.223l.002-.02-2.207-2.051zm9.524-.296c-.432-.132-.899.013-1.233.324L11.954 3.73l.001.024v.223h3.003c.68 0 1.292-.514 1.34-1.21.045-.649-.318-1.19-.939-1.38zM9.007 19.999H2.404c-.781 0-1.415-.592-1.415-1.322V8.985h8.018v11.014zm10-1.322c0 .73-.634 1.322-1.416 1.322h-6.602V8.985h8.018v9.692z"/>
</svg>
