<svg xmlns="http://www.w3.org/2000/svg" width="22" height="11" viewBox="0 0 22 11">
  <metadata><?xpacket begin="﻿" id="W5M0MpCehiHzreSzNTczkc9d"?>
<x:xmpmeta xmlns:x="adobe:ns:meta/" x:xmptk="Adobe XMP Core 5.6-c142 79.160924, 2017/07/13-01:06:39        ">
   <rdf:RDF xmlns:rdf="http://www.w3.org/1999/02/22-rdf-syntax-ns#">
      <rdf:Description rdf:about=""/>
   </rdf:RDF>
</x:xmpmeta>
                                                                                                    
                                                                                                    
                                                                                                    
                                                                                                    
                                                                                                    
                                                                                                    
                                                                                                    
                                                                                                    
                                                                                                    
                                                                                                    
                                                                                                    
                                                                                                    
                                                                                                    
                                                                                                    
                                                                                                    
                                                                                                    
                                                                                                    
                                                                                                    
                                                                                                    
                                                                                                    
                           
<?xpacket end="w"?></metadata>
<defs>
    <style>
      .cls-1 {
        fill: #fff;
        fill-rule: evenodd;
      }
    </style>
  </defs>
  <path id="пополнить" class="cls-1" d="M3790.19,357a7.149,7.149,0,0,1-2.18.73,16.913,16.913,0,0,1-6.02,0,7.149,7.149,0,0,1-2.18-.73,1.274,1.274,0,0,1-.81-1v-1.328a6.853,6.853,0,0,0,2.54.992,17.983,17.983,0,0,0,6.92,0,6.853,6.853,0,0,0,2.54-.992V356A1.274,1.274,0,0,1,3790.19,357Zm-2.18-2.27a16.913,16.913,0,0,1-6.02,0,7.149,7.149,0,0,1-2.18-.73,1.274,1.274,0,0,1-.81-1v-1.328a6.853,6.853,0,0,0,2.54.992,17.983,17.983,0,0,0,6.92,0,6.853,6.853,0,0,0,2.54-.992V353a1.274,1.274,0,0,1-.81,1A7.149,7.149,0,0,1,3788.01,354.734Zm0-3a16.913,16.913,0,0,1-6.02,0,7.176,7.176,0,0,1-2.18-.73,1.274,1.274,0,0,1-.81-1v-1a1.272,1.272,0,0,1,.81-1,7.147,7.147,0,0,1,2.18-.731,16.975,16.975,0,0,1,6.02,0,7.147,7.147,0,0,1,2.18.731,1.272,1.272,0,0,1,.81,1v1a1.274,1.274,0,0,1-.81,1A7.176,7.176,0,0,1,3788.01,351.734ZM3774,357h-2v-3h-3v-2h3v-3h2v3h3v2h-3v3Z" transform="translate(-3769 -347)"/>
</svg>
