<svg xmlns="http://www.w3.org/2000/svg" width="14.994" height="7.995" viewBox="0 0 14.994 7.995">
  <path id="_" data-name="" d="M1453.419,289.779a.24.24,0,0,1-.181.07h-1.5v1.5a.24.24,0,0,1-.253.252h-1a.241.241,0,0,1-.25-.252v-1.5h-1.5a.24.24,0,0,1-.25-.252V288.6a.239.239,0,0,1,.07-.182.244.244,0,0,1,.181-.07h1.5v-1.5a.242.242,0,0,1,.25-.252h1a.241.241,0,0,1,.253.252v1.5h1.5a.241.241,0,0,1,.252.252v.994A.245.245,0,0,1,1453.419,289.779Zm4.286,1.022a.963.963,0,0,1-.716.294,1.065,1.065,0,0,1-.7-.294.856.856,0,0,1-.294-.7,1.049,1.049,0,0,1,.294-.714.925.925,0,0,1,.7-.293A1,1,0,0,1,1458,290.1.865.865,0,0,1,1457.7,290.8Zm2-2a.839.839,0,0,1-.714.294,1.308,1.308,0,0,1-.7-.294.817.817,0,0,1-.293-.7.974.974,0,0,1,.293-.714,1.028,1.028,0,0,1,.7-.28.931.931,0,0,1,.714.28.983.983,0,0,1,.3.714A.911.911,0,0,1,1459.706,288.8Zm1.119-2.535A3.875,3.875,0,0,0,1458,285.1h-7a3.839,3.839,0,0,0-2.829,1.162,3.793,3.793,0,0,0-1.177,2.829,3.927,3.927,0,0,0,1.177,2.827A3.822,3.822,0,0,0,1451,293.1a3.869,3.869,0,0,0,2.63-.995h1.723a4,4,0,0,0,5.474-.182,3.847,3.847,0,0,0,1.162-2.827A3.768,3.768,0,0,0,1460.826,286.264Z" transform="translate(-1446.994 -285.102)" fill="#71ff37"/>
</svg>
