<svg xmlns="http://www.w3.org/2000/svg" xmlns:xlink="http://www.w3.org/1999/xlink" width="64" height="64" viewBox="0 0 64 64"><defs><style>.a{fill:#fff;stroke:#707070;opacity:0;}.b{fill:url(#a);}.c{stroke:none;}.d{fill:none;}</style><linearGradient id="a" x1="0.5" x2="0.5" y2="1" gradientUnits="objectBoundingBox"><stop offset="0" stop-color="#585858"/><stop offset="1" stop-color="#383838"/></linearGradient></defs><g transform="translate(-1424 -1938)"><g transform="translate(1424 1938)"><g class="a"><rect class="c" width="64" height="64"/><rect class="d" x="0.5" y="0.5" width="63" height="63"/></g><path class="b" d="M-12509.5,14466h-17a11.434,11.434,0,0,1-8.134-3.367,11.434,11.434,0,0,1-3.367-8.134v-17a11.434,11.434,0,0,1,3.367-8.134,11.434,11.434,0,0,1,8.134-3.367h17a11.434,11.434,0,0,1,8.134,3.367,11.434,11.434,0,0,1,3.367,8.134v17a11.434,11.434,0,0,1-3.367,8.134A11.434,11.434,0,0,1-12509.5,14466Zm-8.5-30a9.778,9.778,0,0,0-10,10,9.778,9.778,0,0,0,10,10,9.778,9.778,0,0,0,10-10A9.778,9.778,0,0,0-12518,14436Zm11.5-4a2.5,2.5,0,0,0-2.5,2.5,2.5,2.5,0,0,0,2.5,2.5,2.5,2.5,0,0,0,2.5-2.5A2.5,2.5,0,0,0-12506.5,14432Zm-11.5,20a6.05,6.05,0,0,1-4.4-1.6,6.052,6.052,0,0,1-1.6-4.4,6.05,6.05,0,0,1,1.6-4.4,6.052,6.052,0,0,1,4.4-1.6,6.05,6.05,0,0,1,4.4,1.6,6.05,6.05,0,0,1,1.6,4.4,6.052,6.052,0,0,1-1.6,4.4A6.05,6.05,0,0,1-12518,14452Z" transform="translate(12550 -14414)"/></g></g></svg>