<svg xmlns="http://www.w3.org/2000/svg" xmlns:xlink="http://www.w3.org/1999/xlink" viewBox="0 0 45.82 45.82"><defs><style>.cls-1{fill:url(#Безымянный_градиент_48);}.cls-2{fill:url(#Безымянный_градиент_32);}.cls-3{fill:url(#Безымянный_градиент_32-2);}.cls-4{fill:url(#Безымянный_градиент_119);}.cls-5{fill:#bb842c;}.cls-6{fill:#fff27f;}</style><linearGradient id="Безымянный_градиент_48" x1="22.95" y1="13.46" x2="22.85" y2="38.66" gradientTransform="matrix(0.71, -0.71, 0.71, 0.71, -9.49, 22.91)" gradientUnits="userSpaceOnUse"><stop offset="0" stop-color="#291a11"/><stop offset="1" stop-color="#5e4119"/></linearGradient><linearGradient id="Безымянный_градиент_32" x1="3.18" y1="20.09" x2="49.41" y2="20.09" gradientTransform="matrix(0.71, -0.71, 0.71, 0.71, -9.49, 22.91)" gradientUnits="userSpaceOnUse"><stop offset="0" stop-color="#e6a129"/><stop offset="0.51" stop-color="#f8f3ab"/><stop offset="1" stop-color="#f7f29d"/></linearGradient><linearGradient id="Безымянный_градиент_32-2" x1="12.66" y1="7.89" x2="36.78" y2="36.47" gradientTransform="translate(-2.03 0.84)" xlink:href="#Безымянный_градиент_32"/><linearGradient id="Безымянный_градиент_119" x1="8.19" y1="8.87" x2="21.24" y2="26.97" gradientTransform="matrix(0.71, -0.71, 0.71, 0.71, -9.49, 22.91)" gradientUnits="userSpaceOnUse"><stop offset="0" stop-color="#f09928"/><stop offset="1" stop-color="#fbd479"/></linearGradient></defs><title>Ресурс 1</title><g id="Слой_2" data-name="Слой 2"><g id="Слой_1-2" data-name="Слой 1"><path class="cls-1" d="M43.68,6.2c5.08,5.08.8,17.59-9.55,27.93S11.28,48.76,6.2,43.68L1.94,39.4s5.17-15,13.81-23.65c7.9-7.9,23.86-13.61,23.86-13.61Z"/><path class="cls-2" d="M14.14,9.38c4.6-1.34,8.56-1,10.91,1.35,5.08,5.08.81,17.59-9.54,27.93-.81.81-1.63,1.57-2.45,2.3,5.3-1.55,11.47-5.35,17-10.89C40.42,19.72,44.69,7.21,39.61,2.14,34.93-2.54,23.93.73,14.14,9.38Z"/><ellipse class="cls-3" cx="20.88" cy="20.88" rx="26.5" ry="13" transform="translate(-8.65 20.88) rotate(-45)"/><path class="cls-4" d="M25.05,10.73C22.7,8.38,18.74,8,14.14,9.38c-.83.74-1.65,1.5-2.46,2.3C1.34,22-2.94,34.54,2.14,39.61,4.5,42,8.46,42.31,13.06,41c.82-.73,1.64-1.49,2.45-2.3C25.86,28.32,30.13,15.81,25.05,10.73Z"/><path class="cls-5" d="M12.65,12.66A41.67,41.67,0,0,0,4.42,24.19a21.65,21.65,0,0,0-2,6.79,11.1,11.1,0,0,0,.16,3.5,6.8,6.8,0,0,0,1.64,3,6.74,6.74,0,0,0,3,1.58,11,11,0,0,0,3.48.11,22.28,22.28,0,0,0,6.7-2.07,41.67,41.67,0,0,0,11.42-8.26,52.29,52.29,0,0,0,4.62-5.35,38,38,0,0,0,3.63-6.06,22.37,22.37,0,0,0,2.07-6.7,11,11,0,0,0-.11-3.48,6.82,6.82,0,0,0-1.58-3,6.88,6.88,0,0,0-3-1.63A11.1,11.1,0,0,0,31,2.44a21.59,21.59,0,0,0-6.78,2A41.57,41.57,0,0,0,12.65,12.66Zm0,0a42,42,0,0,1,11.5-8.32A22.46,22.46,0,0,1,31,2.25a11.33,11.33,0,0,1,3.58.11A7.1,7.1,0,0,1,37.72,4,7.11,7.11,0,0,1,39.43,7.2a10.9,10.9,0,0,1,.17,3.6,21.72,21.72,0,0,1-2,6.88A42.07,42.07,0,0,1,29.3,29.3a42.3,42.3,0,0,1-11.63,8.3,22.25,22.25,0,0,1-6.88,2,11.48,11.48,0,0,1-3.6-.17A7.2,7.2,0,0,1,4,37.73a7.2,7.2,0,0,1-1.66-3.19A11.34,11.34,0,0,1,2.24,31a22.2,22.2,0,0,1,2.1-6.8A41.77,41.77,0,0,1,12.65,12.66Z"/><path class="cls-5" d="M15.74,31.75A44.88,44.88,0,0,0,24,27.49l-.73,1.8-.12.3.25-.21A50.79,50.79,0,0,0,31.27,21l.25-.33-.39.13c-1.23.41-2.47.8-3.72,1.15a24.84,24.84,0,0,1-3.79.81l-.2,0,.08.19.7,1.69A16.63,16.63,0,0,1,20.73,26a10.53,10.53,0,0,1-3.79.24,7.63,7.63,0,0,1-3.49-1.4,7.18,7.18,0,0,1-2.08-2.91c-.17,0-.38-.14-.54-.16a8.14,8.14,0,0,0,2.38,3.4,8,8,0,0,0,3.67,1.45,11,11,0,0,0,3.93-.27,17.18,17.18,0,0,0,3.67-1.41l.14-.06-.06-.15-.7-1.63a25.68,25.68,0,0,0,3.62-.82c1.12-.32,2.23-.68,3.33-1.06A50,50,0,0,1,23.53,29l.66-1.69.09-.22-.2.13a45,45,0,0,1-8.37,4.43,21.21,21.21,0,0,1-9.28,1.56h0a3.22,3.22,0,0,0,.87,1.22,3.1,3.1,0,0,1-.85-1.21A21.15,21.15,0,0,0,15.74,31.75Z"/><path class="cls-5" d="M32.74,6A8.17,8.17,0,0,0,29,5.63,19.15,19.15,0,0,0,21.92,8.1l-.48.27L22,8.5a10.6,10.6,0,0,1,3.1,1.31,10.25,10.25,0,0,1,2.49,2.25l.2.25.18-.25L29.49,10a35.26,35.26,0,0,1,0,6.08,24.85,24.85,0,0,0-6.58,1.17l2-1.88.57-.53h-.11c-.56.27-1.08.53-1.53.77l-2.22,2.07-1,.91,1.26-.42a27.69,27.69,0,0,1,7.87-1.55H30l0-.25A37.62,37.62,0,0,0,30,9.25l-.05-.71-.42.58-1.75,2.39a10.12,10.12,0,0,0-5.11-3.28A18.16,18.16,0,0,1,29,6a7.78,7.78,0,0,1,3.59.34A4.6,4.6,0,0,1,35.2,8.7a7.22,7.22,0,0,1,.61,3.54,15.36,15.36,0,0,1-.74,3.6,27.22,27.22,0,0,1-3.39,6.56A38.29,38.29,0,0,1,21.06,32.66a22.71,22.71,0,0,1-6.75,3,10.43,10.43,0,0,1-3.69.28,5.63,5.63,0,0,1-3.33-1.49A5.54,5.54,0,0,0,10.62,36a10.73,10.73,0,0,0,3.7-.24,22.66,22.66,0,0,0,6.8-3A38.58,38.58,0,0,0,31.86,22.53a27.22,27.22,0,0,0,3.47-6.6,15.81,15.81,0,0,0,.79-3.67,7.65,7.65,0,0,0-.62-3.71A5,5,0,0,0,32.74,6Z"/><path class="cls-6" d="M35.61,14a17.15,17.15,0,0,1-.67,2.25,28.45,28.45,0,0,1-3.67,6.6A37.64,37.64,0,0,1,20.09,33a20.14,20.14,0,0,1-7,2.62,7.8,7.8,0,0,1-3.66-.26A3.28,3.28,0,0,1,8.59,35a3,3,0,0,1-.75-.51,3.52,3.52,0,0,1-1-1.07,21.7,21.7,0,0,0,9-1.59,44.12,44.12,0,0,0,8-4.23l-.64,1.63-.19.48.39-.34a50.27,50.27,0,0,0,7.77-8.46,50.78,50.78,0,0,1-7.53,7.91l.62-1.52.16-.4-.37.24a45.38,45.38,0,0,1-8.38,4.36,21.13,21.13,0,0,1-9.22,1.48l-.32,0,.1.3a3.56,3.56,0,0,0,1.24,1.58,3.58,3.58,0,0,0,.81.57,4.3,4.3,0,0,0,.9.41,8.21,8.21,0,0,0,3.87.31,20.2,20.2,0,0,0,7.22-2.64A38.47,38.47,0,0,0,31.6,23.11a28.7,28.7,0,0,0,3.66-6.73,15,15,0,0,0,.91-3.74c0-.3,0-.6,0-.9A10.43,10.43,0,0,1,35.61,14Z"/><path class="cls-6" d="M4.21,37.53a7.22,7.22,0,0,0,4.88,1.79,15.41,15.41,0,0,0,5.21-.88,33.82,33.82,0,0,0,9.37-4.95,47.18,47.18,0,0,0,7.75-7.26,38.7,38.7,0,0,0,5.79-8.87,23.12,23.12,0,0,0,1.75-5,12,12,0,0,0,.17-5.2,5.78,5.78,0,0,0-3-4,8.93,8.93,0,0,0-5.09-.76A19.08,19.08,0,0,0,26,3.73c-.84.29-1.62.71-2.43,1.06s-1.58.81-2.33,1.29a45,45,0,0,0-8.45,6.48,45.5,45.5,0,0,1,8.31-6.71c.75-.49,1.56-.87,2.34-1.31s1.6-.8,2.45-1.1A19.79,19.79,0,0,1,31,2.07a9.47,9.47,0,0,1,5.32.76,6.27,6.27,0,0,1,3.22,4.26,12.44,12.44,0,0,1-.13,5.4,23.29,23.29,0,0,1-1.75,5.1,39.31,39.31,0,0,1-5.93,8.93,47.17,47.17,0,0,1-7.89,7.25,33.61,33.61,0,0,1-9.49,4.92,15.59,15.59,0,0,1-5.29.76A7.28,7.28,0,0,1,4.21,37.53Z"/><path class="cls-6" d="M20.8,15.69a17.49,17.49,0,0,0-3.52,1.43,38.42,38.42,0,0,0-6.35,4.54l-.1.08.56.2s0,0,0,0a37.48,37.48,0,0,1,6.16-4.33,17.68,17.68,0,0,1,3.81-1.45C21.15,16,21,15.84,20.8,15.69Z"/><path class="cls-5" d="M24.41,24.77a14.05,14.05,0,0,1-3.58,1.6,10,10,0,0,1-4,.33,7.44,7.44,0,0,1-3.68-1.54A6.42,6.42,0,0,1,11,21.93a7.64,7.64,0,0,0,2.48,2.86A8.11,8.11,0,0,0,17,26.1a11.68,11.68,0,0,0,3.77-.18A23.82,23.82,0,0,0,24.41,24.77Z"/><path class="cls-5" d="M23.09,29.64l.22-.52,4-3.93,1.9-2.14c.65-.7,1.75-2.13,1.75-2.13l.57-.22s-1.64,2.23-2,2.65c-.58.77-1.21,1.5-1.86,2.21a23.2,23.2,0,0,1-2.08,2A23.8,23.8,0,0,1,23.09,29.64Z"/><path class="cls-5" d="M27.52,27.53A32.92,32.92,0,0,1,23,31.72a26.79,26.79,0,0,1-5.33,3.17,14.39,14.39,0,0,1-6.09,1.35,6.58,6.58,0,0,1-3-.76,5.51,5.51,0,0,1-1.25-.95,3,3,0,0,1-.83-1.3,3,3,0,0,0,1,1.18,5.27,5.27,0,0,0,1.27.81,6.31,6.31,0,0,0,2.91.56,15,15,0,0,0,5.83-1.44,29.56,29.56,0,0,0,5.31-3A53,53,0,0,0,27.52,27.53Z"/><path class="cls-5" d="M3.88,37.29A8.56,8.56,0,0,0,7.28,39a10.94,10.94,0,0,0,3.47.16,22.18,22.18,0,0,0,6.68-2.08c4.3-2,7.88-5.07,11.44-8.22a40.83,40.83,0,0,1-5.06,5,36,36,0,0,1-6.12,3.73,21.49,21.49,0,0,1-6.89,2,11.16,11.16,0,0,1-3.6-.22A8.33,8.33,0,0,1,3.88,37.29Z"/></g></g></svg>