<svg xmlns="http://www.w3.org/2000/svg" xmlns:xlink="http://www.w3.org/1999/xlink" width="54" height="37" viewBox="0 0 54 37">
  <metadata><?xpacket begin="﻿" id="W5M0MpCehiHzreSzNTczkc9d"?>
<x:xmpmeta xmlns:x="adobe:ns:meta/" x:xmptk="Adobe XMP Core 5.6-c140 79.160451, 2017/05/06-01:08:21        ">
   <rdf:RDF xmlns:rdf="http://www.w3.org/1999/02/22-rdf-syntax-ns#">
      <rdf:Description rdf:about=""/>
   </rdf:RDF>
</x:xmpmeta>
                                                                                                    
                                                                                                    
                                                                                                    
                                                                                                    
                                                                                                    
                                                                                                    
                                                                                                    
                                                                                                    
                                                                                                    
                                                                                                    
                                                                                                    
                                                                                                    
                                                                                                    
                                                                                                    
                                                                                                    
                                                                                                    
                                                                                                    
                                                                                                    
                                                                                                    
                                                                                                    
                           
<?xpacket end="w"?></metadata>
<defs>
    <style>
      .cls-1 {
        fill: #5e98d9;
        fill-rule: evenodd;
        filter: url(#filter);
      }
    </style>
    <filter id="filter" x="7828" y="1025" width="54" height="37" filterUnits="userSpaceOnUse">
      <feOffset result="offset" dy="4" in="SourceAlpha"/>
      <feGaussianBlur result="blur" stdDeviation="2.828"/>
      <feFlood result="flood" flood-color="#5e98d9" flood-opacity="0.25"/>
      <feComposite result="composite" operator="in" in2="blur"/>
      <feBlend result="blend" in="SourceGraphic"/>
    </filter>
  </defs>
  <path id="vk" class="cls-1" d="M7836.74,1029.46a26.873,26.873,0,0,1,2.91-.05l2.3,0.05a1.509,1.509,0,0,1,1.51.94,35.209,35.209,0,0,0,4.46,7.62c1,0.9,1.65.76,1.93-.4,0.12,0,.18-1.44.18-4.31a3.006,3.006,0,0,0-2.3-3.4c0.38-.93,1.66-1.39,3.86-1.39a15.979,15.979,0,0,1,2.02.04l1.31,0.09c1.82,0,2.73.7,2.73,2.11,0,0.18-.04.61-0.1,1.3s-0.11,1.33-.14,1.93-0.04,1.24-.04,1.92a4.431,4.431,0,0,0,.28,1.71,1.431,1.431,0,0,0,.75.85,3.507,3.507,0,0,0,.94-0.63c0.25-.24.58-0.58,0.99-1.03a5.745,5.745,0,0,0,.79-1.03c0.13-.24.4-0.69,0.8-1.35a5.979,5.979,0,0,0,.66-1.21,11.153,11.153,0,0,1,.61-1.34l0.71-1.39a2.3,2.3,0,0,1,.61-0.9,2.811,2.811,0,0,1,1.12-.13h5.69a8.972,8.972,0,0,1,1.22.04,1.292,1.292,0,0,1,.52.41c0.44,0.51.06,1.64-1.13,3.4a34.707,34.707,0,0,1-3.43,4.4q-2.3,2.415-.66,3.9a36.007,36.007,0,0,1,4.89,5.01,2.081,2.081,0,0,1,.38,1.71,0.987,0.987,0,0,1-1.04.72l-6.06.27a4.759,4.759,0,0,1-3.1-1.48,13.717,13.717,0,0,1-2.49-2.6,1.515,1.515,0,0,0-1.32-.72,1.079,1.079,0,0,0-1.26.85l-0.19,2.29a1.306,1.306,0,0,1-.52,1.07,2.005,2.005,0,0,1-.8.36l-1.03.14a26.066,26.066,0,0,1-4.19-.23,7.536,7.536,0,0,1-3.29-1.25c-0.93-.66-1.7-1.24-2.3-1.75a33.908,33.908,0,0,1-2.54-2.56,70.783,70.783,0,0,1-6.71-10.58,9.145,9.145,0,0,1-.9-2.95A2.477,2.477,0,0,1,7836.74,1029.46Z" transform="translate(-7828 -1025)"/>
</svg>
