<?xml version="1.0" encoding="utf-8"?>
<!-- Generator: Adobe Illustrator 19.0.1, SVG Export Plug-In . SVG Version: 6.00 Build 0)  -->
<svg version="1.1" id="Layer_1" xmlns="http://www.w3.org/2000/svg" xmlns:xlink="http://www.w3.org/1999/xlink" x="0px" y="0px"
	 viewBox="-286.5 414.4 20 13" style="enable-background:new -286.5 414.4 20 13;" xml:space="preserve">
<style type="text/css">
	.st0{clip-path:url(#SVGID_2_);fill:#002C8A;}
	.st1{clip-path:url(#SVGID_4_);}
	.st2{fill:#FFFFFF;}
	.st3{fill:#C81318;}
	.st4{clip-path:url(#SVGID_6_);fill:none;}
	.st5{clip-path:url(#SVGID_8_);fill:#FFFFFF;}
	.st6{clip-path:url(#SVGID_10_);fill:#C81318;}
</style>
<g>
	<g>
		<defs>
			<rect id="SVGID_1_" x="-286.5" y="414.4" width="20" height="13"/>
		</defs>
		<clipPath id="SVGID_2_">
			<use xlink:href="#SVGID_1_"  style="overflow:visible;"/>
		</clipPath>
		<rect x="-286.5" y="414.4" class="st0" width="20" height="13"/>
	</g>
	<g>
		<defs>
			<rect id="SVGID_3_" x="-286.5" y="414.4" width="20" height="13"/>
		</defs>
		<clipPath id="SVGID_4_">
			<use xlink:href="#SVGID_3_"  style="overflow:visible;"/>
		</clipPath>
		<g class="st1">
			<polygon class="st2" points="-278.7,420.9 -286.5,426.6 -286.5,427.4 -286,427.4 -277.9,421.5 			"/>
			<polygon class="st2" points="-284.8,427.4 -283.3,427.4 -276.5,422.5 -277.2,421.9 			"/>
			<polygon class="st2" points="-268.2,414.4 -269.7,414.4 -276.5,419.3 -275.7,419.9 			"/>
			<polygon class="st2" points="-266.5,414.4 -266.9,414.4 -275.1,420.3 -274.3,420.9 -266.5,415.2 			"/>
			<polygon class="st2" points="-275.8,420.9 -266.9,427.4 -266.5,427.4 -266.5,426.6 -274.3,420.9 -275.1,420.3 			"/>
			<polygon class="st2" points="-276.5,420.4 -275.7,419.9 -276.5,419.3 -283.3,414.4 -284.8,414.4 			"/>
			<polygon class="st2" points="-276.4,421.3 -277.2,421.9 -276.5,422.5 -269.7,427.4 -268.1,427.4 			"/>
			<polygon class="st2" points="-277.1,420.9 -286.1,414.4 -286.5,414.4 -286.5,415.2 -278.7,420.9 -277.9,421.5 			"/>
			<polygon class="st2" points="-276.6,420.6 -276.4,420.8 -276.4,420.7 -276.5,420.5 			"/>
			<polygon class="st3" points="-276.5,420.4 -276.5,420.5 -276.5,420.5 -276.4,420.7 -276.3,420.5 -275.8,420.9 -275.1,420.3 
				-266.9,414.4 -268.2,414.4 -275.7,419.9 			"/>
			<polygon class="st3" points="-277.1,420.9 -276.6,420.5 -276.6,420.6 -276.5,420.5 -276.5,420.5 -276.5,420.4 -284.8,414.4 
				-286.1,414.4 			"/>
			<polygon class="st3" points="-275.8,420.9 -276.3,420.5 -276.4,420.7 -276.4,420.8 -276.1,421.1 -276.4,421.3 -268.1,427.4 
				-266.9,427.4 			"/>
			<polygon class="st3" points="-276.4,421.3 -276.1,421.1 -276.4,420.8 -276.6,420.6 -276.6,420.5 -277.1,420.9 -277.9,421.5 
				-286,427.4 -284.8,427.4 -277.2,421.9 			"/>
		</g>
	</g>
	<g>
		<defs>
			<rect id="SVGID_5_" x="-286.5" y="414.4" width="20" height="13"/>
		</defs>
		<clipPath id="SVGID_6_">
			<use xlink:href="#SVGID_5_"  style="overflow:visible;"/>
		</clipPath>
		<rect x="-286.5" y="414.4" class="st4" width="20" height="13"/>
	</g>
	<g>
		<defs>
			<rect id="SVGID_7_" x="-286.5" y="414.4" width="20" height="13"/>
		</defs>
		<clipPath id="SVGID_8_">
			<use xlink:href="#SVGID_7_"  style="overflow:visible;"/>
		</clipPath>
		<polygon class="st5" points="-266.5,418.1 -274.1,418.1 -274.1,414.4 -278.9,414.4 -278.9,418.1 -286.5,418.1 -286.5,422.7 
			-278.9,422.7 -278.9,427.4 -274.1,427.4 -274.1,422.7 -266.5,422.7 		"/>
	</g>
	<g>
		<defs>
			<rect id="SVGID_9_" x="-286.5" y="414.4" width="20" height="13"/>
		</defs>
		<clipPath id="SVGID_10_">
			<use xlink:href="#SVGID_9_"  style="overflow:visible;"/>
		</clipPath>
		<polygon class="st6" points="-266.5,419 -275.1,419 -275.1,414.4 -277.9,414.4 -277.9,419 -286.5,419 -286.5,421.8 -277.9,421.8 
			-277.9,427.4 -275.1,427.4 -275.1,421.8 -266.5,421.8 		"/>
	</g>
</g>
</svg>
