<?xml version="1.0" encoding="utf-8"?>
<!-- Generator: Adobe Illustrator 19.0.1, SVG Export Plug-In . SVG Version: 6.00 Build 0)  -->
<svg version="1.1" id="Layer_1" xmlns="http://www.w3.org/2000/svg" xmlns:xlink="http://www.w3.org/1999/xlink" x="0px" y="0px"
	 viewBox="-286.5 414.4 20 13" style="enable-background:new -286.5 414.4 20 13;" xml:space="preserve">
<style type="text/css">
	.st0{fill:#AE0F0D;}
	.st1{fill:#E5E512;}
</style>
<g>
	<rect x="-286.5" y="414.4" class="st0" width="20" height="13"/>
	<path class="st1" d="M-277.7,420.4l-0.7-0.7c0.4-0.5,0.6-1.2,0.5-1.8c-0.1-1.5-0.8-2-2-2.6c0.8,0.9,1.1,1.3,1.1,2.6
		c0,0.4-0.1,0.8-0.3,1.1l-2-1.8l0.8-0.8l-1.5-0.1l-1.3,1.3l0.8,0.8l0.5-0.5l1.9,1.8c-0.3,0.1-0.6,0.2-1,0.2c-1-0.2-1.4-0.5-1.7-0.9
		l-0.5,0.5l-0.1-0.1l-0.1,0.1c-0.1,0-0.3,0-0.4,0.1c-0.1,0.1-0.1,0.2-0.1,0.3c-0.1,0.1-0.7,0.4-0.8,0.5c-0.2,0.2-0.2,0.5,0,0.7
		c0.2,0.2,0.5,0.2,0.7,0c0.1-0.1,0.5-0.6,0.5-0.8c0.1,0,0.2,0,0.3-0.1c0.1-0.1,0.1-0.2,0.1-0.4l0.1-0.1c0.5,0.7,1.1,1.1,2.1,1.2
		c0.7,0.1,1.2-0.1,1.7-0.4l0.7,0.7L-277.7,420.4z"/>
</g>
</svg>
