<svg xmlns="http://www.w3.org/2000/svg" xmlns:xlink="http://www.w3.org/1999/xlink" width="64" height="64" viewBox="0 0 64 64"><defs><style>.a{fill:#fff;stroke:#707070;opacity:0;}.b{stroke:rgba(0,0,0,0);stroke-miterlimit:10;fill:url(#a);}.c{stroke:none;}.d{fill:none;}</style><linearGradient id="a" x1="0.5" x2="0.5" y2="1" gradientUnits="objectBoundingBox"><stop offset="0" stop-color="#585858"/><stop offset="1" stop-color="#383838"/></linearGradient></defs><g transform="translate(-1360 -1938)"><g transform="translate(1360 1938)"><g class="a"><rect class="c" width="64" height="64"/><rect class="d" x="0.5" y="0.5" width="63" height="63"/></g><path class="b" d="M-12434,14465.5h-17a11.432,11.432,0,0,1-8.133-3.367,11.422,11.422,0,0,1-3.368-8.13v-17a11.429,11.429,0,0,1,3.368-8.134,11.432,11.432,0,0,1,8.133-3.367h17a11.432,11.432,0,0,1,8.133,3.367,11.429,11.429,0,0,1,3.368,8.134v17a11.422,11.422,0,0,1-3.368,8.13A11.432,11.432,0,0,1-12434,14465.5Zm-4.83-15.693c.038,0,.082,0,.136.007a1.211,1.211,0,0,1,1.042.552,10.573,10.573,0,0,0,1.971,2,4.029,4.029,0,0,0,2.342,1.14,1.033,1.033,0,0,0,.112,0l4.8-.207a.78.78,0,0,0,.823-.552,1.548,1.548,0,0,0-.3-1.311,28.672,28.672,0,0,0-3.874-3.855,1.422,1.422,0,0,1-.541-1.022,2.938,2.938,0,0,1,1.063-1.976,26.815,26.815,0,0,0,2.716-3.377c.939-1.347,1.24-2.226.894-2.613a1.006,1.006,0,0,0-.407-.312,7.313,7.313,0,0,0-.969-.036h-4.506a2.286,2.286,0,0,0-.894.105,1.733,1.733,0,0,0-.482.689l-.559,1.067a7.634,7.634,0,0,0-.486,1.031,4.916,4.916,0,0,1-.52.929c-.323.5-.537.853-.635,1.035a4.245,4.245,0,0,1-.632.791c-.368.393-.6.631-.781.795a2.792,2.792,0,0,1-.744.483,1.1,1.1,0,0,1-.6-.657,3.336,3.336,0,0,1-.226-1.307c0-.5.014-1,.04-1.481s.064-.974.113-1.481c.051-.568.072-.868.072-1,0-1.071-.726-1.615-2.156-1.615l-1.042-.072c-.43-.029-.816-.044-1.148-.044-.158,0-.312,0-.456.011-1.729,0-2.756.36-3.054,1.071a2.334,2.334,0,0,1,1.826,2.613,14.061,14.061,0,0,1-.148,3.308c-.127.5-.348.76-.654.76a1.489,1.489,0,0,1-.874-.447,26.945,26.945,0,0,1-3.536-5.859,1.222,1.222,0,0,0-1.077-.728c-.033,0-.07,0-.113,0l-1.826-.033c-.37-.009-.68-.013-.946-.013-.559,0-1.017.016-1.359.046a1.99,1.99,0,0,0-1.082.349,6.981,6.981,0,0,0,.7,2.272,56.015,56.015,0,0,0,5.33,8.128,25.427,25.427,0,0,0,2.007,1.964c.463.383,1.077.835,1.826,1.344a6.093,6.093,0,0,0,2.607.966,20.926,20.926,0,0,0,2.786.177c.175,0,.353,0,.528-.006l.816-.1a1.637,1.637,0,0,0,.636-.279.978.978,0,0,0,.406-.824l.148-1.757A.845.845,0,0,1-12438.831,14449.8Z" transform="translate(12474.5 -14413.5)"/></g></g></svg>